<svg width="30" height="30" viewBox="0 0 30 30" fill="none" xmlns="http://www.w3.org/2000/svg">
<g clip-path="url(#clip0_3_189)">
<path d="M15.0004 23.3456C19.6099 23.3456 23.3466 19.6088 23.3466 14.9992C23.3466 10.3896 19.6099 6.65274 15.0004 6.65274C10.3908 6.65274 6.65402 10.3896 6.65402 14.9992C6.65402 19.6088 10.3908 23.3456 15.0004 23.3456Z" fill="white"/>
<path d="M4.20586 10.8981C3.58324 9.81962 2.8514 8.6877 2.01023 7.50235C0.693478 9.78251 0.000227833 12.3692 0.000183108 15.0022C0.000138382 17.6353 0.6933 20.2219 2.00998 22.5021C3.32666 24.7824 5.22044 26.6757 7.50093 27.9919C9.78142 29.3081 12.3682 30.0007 15.0013 30.0001C16.3818 28.0638 17.3193 26.6677 17.8133 25.8118C18.7624 24.1679 19.9898 21.8143 21.4957 18.7512V18.7494C20.8378 19.89 19.8912 20.8373 18.7511 21.496C17.611 22.1547 16.3175 22.5016 15.0007 22.5018C13.684 22.502 12.3904 22.1555 11.2501 21.4972C10.1098 20.8388 9.16287 19.8918 8.50465 18.7514C6.45937 14.9372 5.02652 12.3193 4.20586 10.8981Z" fill="#229342"/>
<path d="M15.0009 29.9995C16.9708 29.9999 18.9214 29.6121 20.7414 28.8584C22.5613 28.1046 24.215 26.9998 25.6079 25.6068C27.0007 24.2139 28.1055 22.5602 28.8591 20.7402C29.6127 18.9202 30.0004 16.9695 30 14.9997C29.9995 12.3666 29.3058 9.78 27.9887 7.50001C25.1471 7.21993 23.0501 7.0799 21.6974 7.0799C20.1636 7.0799 17.9311 7.21993 14.9999 7.50001L14.9982 7.50118C16.315 7.50057 17.6087 7.84667 18.7493 8.50469C19.8898 9.1627 20.837 10.1094 21.4956 11.2497C22.1541 12.3899 22.5008 13.6835 22.5008 15.0003C22.5008 16.317 22.154 17.6106 21.4955 18.7508L15.0009 29.9995Z" fill="#FBC116"/>
<path d="M15.0004 20.9387C18.2797 20.9387 20.9381 18.2803 20.9381 15.0008C20.9381 11.7212 18.2797 9.06293 15.0002 9.06293C11.721 9.06293 9.06246 11.7214 9.06246 15.0008C9.06246 18.2802 11.721 20.9387 15.0004 20.9387Z" fill="#1A73E8"/>
<path d="M15.0004 7.50048H27.9891C26.6729 5.21996 24.7795 3.32616 22.4992 2.00951C20.219 0.69287 17.6323 -0.000208647 14.9992 -3.04832e-05C12.3661 0.00014768 9.77951 0.693577 7.49943 2.01053C5.21936 3.32748 3.32622 5.22154 2.01035 7.50224L8.50477 18.7511L8.50652 18.752C7.84764 17.6119 7.50055 16.3185 7.50017 15.0017C7.49978 13.685 7.84611 12.3913 8.50432 11.2509C9.16253 10.1105 10.1094 9.16343 11.2498 8.50505C12.3901 7.84668 13.6837 7.50016 15.0005 7.50036L15.0002 7.50048H15.0004Z" fill="#E33B2E"/>
</g>
<defs>
<clipPath id="clip0_3_189">
<rect width="30" height="30" fill="white"/>
</clipPath>
</defs>
</svg>
