<svg width="30" height="30" viewBox="0 0 30 30" fill="none" xmlns="http://www.w3.org/2000/svg">
<g clip-path="url(#clip0_3_95)">
<path d="M29.952 13.2016C29.898 12.6989 29.8083 12.122 29.6286 11.4794C29.4264 10.7675 29.1434 10.077 28.7844 9.41914C28.3548 8.62994 27.8274 7.88884 27.2127 7.21054C26.9523 6.92226 26.6648 6.64204 26.3596 6.37011C26.8175 4.6972 25.8027 3.24688 25.8027 3.24688C24.0513 3.14796 22.9377 3.74957 22.5246 4.02151C22.4528 3.99677 22.3898 3.96376 22.318 3.93903C22.0216 3.83194 21.7162 3.72484 21.3929 3.63419C21.0727 3.542 20.7492 3.45952 20.423 3.38688C20.0907 3.31269 19.7585 3.25505 19.4171 3.20559C19.3542 3.19742 19.3004 3.18914 19.2375 3.18086C18.4741 0.93957 16.2827 0 16.2827 0C13.8309 1.42559 13.3729 3.41989 13.3729 3.41989C13.3729 3.41989 13.3638 3.46108 13.3459 3.53527C13.2111 3.56828 13.0765 3.60946 12.9417 3.64237C12.7532 3.69183 12.5646 3.75774 12.385 3.82366C12.1978 3.88878 12.0121 3.95747 11.8281 4.02968C11.455 4.17953 11.0894 4.34453 10.7324 4.52419C10.3821 4.70548 10.041 4.90323 9.70852 5.10925L9.61875 5.07624C6.22383 3.88957 3.21527 5.31527 3.21527 5.31527C2.93684 8.62807 4.57137 10.7129 4.89469 11.092C4.81383 11.2981 4.74199 11.5041 4.67016 11.7101C4.41867 12.46 4.23012 13.2263 4.1134 14.0257C4.09535 14.1411 4.07742 14.2565 4.0684 14.3718C0.925078 15.7974 0 18.7065 0 18.7065C2.61352 21.4671 5.66707 21.6401 5.66707 21.6401L5.67609 21.6319C6.06223 22.2663 6.51129 22.868 7.01426 23.4366C7.22623 23.6723 7.44792 23.9004 7.67883 24.1206C6.7268 26.6258 7.81359 28.7024 7.81359 28.7024C10.7234 28.8013 12.6364 27.5323 13.0405 27.2439C13.3297 27.336 13.6234 27.4157 13.9207 27.4828C14.8136 27.696 15.729 27.8203 16.6509 27.8537C16.8755 27.8618 17.109 27.8701 17.3336 27.8618H17.6569L17.8005 27.8537V27.8618C19.1747 29.6584 21.5816 29.9139 21.5816 29.9139C23.297 28.2574 23.3957 26.6093 23.3957 26.2549V26.1066C23.755 25.8759 24.0963 25.6286 24.4196 25.3567C25.1021 24.7881 25.7039 24.1371 26.2068 23.4366L26.3415 23.2388C28.2814 23.3377 29.6556 22.1345 29.6556 22.1345C29.3323 20.2804 28.1827 19.374 27.9402 19.2009C27.9402 19.2009 27.9312 19.1927 27.9132 19.1844C27.8953 19.1761 27.8953 19.168 27.8953 19.168C27.8863 19.1597 27.8684 19.1514 27.8504 19.1432C27.8593 19.0279 27.8684 18.9206 27.8774 18.8054C27.8953 18.6075 27.8953 18.4015 27.8953 18.2038V17.8905L27.8863 17.767L27.8774 17.6022C27.8774 17.5445 27.8684 17.4951 27.8593 17.4456C27.8504 17.3961 27.8504 17.3385 27.8414 17.289L27.8235 17.1325L27.7965 16.9759C27.7605 16.7699 27.7247 16.572 27.6708 16.366C27.4642 15.5668 27.1229 14.8086 26.6829 14.1246C26.2401 13.4511 25.6856 12.845 25.0393 12.3282C24.4106 11.8172 23.7011 11.4052 22.9646 11.1002C22.2193 10.7954 21.4468 10.5975 20.6745 10.5069C20.2883 10.4574 19.9022 10.441 19.5159 10.4492H19.2285L19.0848 10.4575C19.0309 10.4575 18.977 10.4657 18.9321 10.4657C18.7363 10.4818 18.5415 10.5065 18.3484 10.5399C17.576 10.6717 16.8485 10.9272 16.2109 11.2815C15.5733 11.6359 15.0164 12.0727 14.5673 12.5671C14.1281 13.0508 13.7764 13.5962 13.5255 14.1823C13.2901 14.7357 13.1507 15.3197 13.1125 15.9128C13.1034 16.0529 13.1034 16.2013 13.1034 16.3414V16.4485L13.1125 16.5639C13.1214 16.6298 13.1214 16.704 13.1304 16.7699C13.1573 17.0583 13.2202 17.3385 13.301 17.6022C13.4716 18.1378 13.7411 18.624 14.0733 19.036C14.4056 19.4481 14.8098 19.786 15.2319 20.058C15.654 20.3216 16.112 20.5112 16.5612 20.6347C17.0102 20.7584 17.4593 20.8079 17.8814 20.8079H18.1148C18.1418 20.8079 18.1687 20.8079 18.1956 20.7996C18.2405 20.7996 18.2854 20.7913 18.3304 20.7913C18.3393 20.7913 18.3573 20.7913 18.3662 20.7831L18.4111 20.7748C18.438 20.7748 18.465 20.7667 18.492 20.7667C18.5459 20.7584 18.5907 20.7501 18.6446 20.7419C18.6986 20.7337 18.7434 20.7254 18.7883 20.7089C18.8871 20.6925 18.977 20.6595 19.0668 20.6347C19.2464 20.5771 19.4261 20.5111 19.5786 20.437C19.7404 20.3628 19.884 20.2722 20.0277 20.1897C20.0637 20.1649 20.1086 20.1403 20.1445 20.1073C20.2882 20.0002 20.3152 19.8025 20.1984 19.6706C20.0995 19.5553 19.92 19.5223 19.7762 19.5965L19.6684 19.6459C19.5437 19.7038 19.4147 19.7534 19.2823 19.7943C19.1475 19.8354 19.0039 19.8684 18.8602 19.8931C18.7883 19.9013 18.7165 19.9096 18.6356 19.9179C18.5998 19.9179 18.5638 19.926 18.5189 19.926H18.3033C18.2584 19.926 18.2135 19.926 18.1686 19.9179H18.1148C18.0969 19.9179 18.07 19.9179 18.052 19.9096C18.0071 19.9013 17.9712 19.9013 17.9263 19.8931C17.5939 19.8519 17.2617 19.7613 16.9473 19.6294C16.6155 19.4933 16.3093 19.3097 16.0403 19.0855C15.7618 18.8547 15.5194 18.5828 15.3307 18.2697C15.142 17.9566 15.0074 17.6104 14.9446 17.2479C14.9176 17.0666 14.8997 16.877 14.9086 16.6957C14.9086 16.6462 14.9176 16.5968 14.9176 16.5473V16.4814C14.9176 16.4567 14.9266 16.4319 14.9266 16.4072C14.9355 16.3084 14.9536 16.2095 14.9715 16.1106C15.1242 15.3195 15.5552 14.5448 16.2199 13.9598C16.3905 13.8114 16.5701 13.6796 16.7587 13.556C16.9508 13.4314 17.1552 13.3237 17.3694 13.2345C17.5837 13.1433 17.8061 13.0689 18.0341 13.0122C18.2585 12.9544 18.4921 12.9214 18.7345 12.8968C18.8514 12.8885 18.9681 12.8802 19.0938 12.8802H19.3723L19.4711 12.8885C19.7314 12.9049 19.9829 12.938 20.2344 12.9956C20.7374 13.0945 21.2313 13.2676 21.6893 13.4983C22.6055 13.9681 23.3868 14.6932 23.8628 15.5668C24.1054 16.0034 24.2759 16.4732 24.3567 16.9594C24.3746 17.083 24.3927 17.2067 24.4016 17.3303L24.4106 17.4209L24.4196 17.5115V17.8659C24.4196 17.9235 24.4106 18.0225 24.4106 18.0801C24.4016 18.212 24.3837 18.3522 24.3657 18.484C24.3478 18.6158 24.3209 18.7476 24.2939 18.8795C24.2662 19.0097 24.2333 19.1388 24.1951 19.2668C24.1216 19.5269 24.0316 19.7828 23.9256 20.0332C23.7067 20.5323 23.4233 21.0054 23.0814 21.4424C22.39 22.3159 21.4468 23.0246 20.3692 23.4778C19.8302 23.7003 19.2645 23.8652 18.6807 23.9475C18.3933 23.997 18.0969 24.0217 17.8005 24.0299H17.3515C17.1924 24.0299 17.0335 24.0216 16.8755 24.0052C16.2468 23.964 15.6271 23.8569 15.0164 23.7003C14.4146 23.5438 13.8309 23.3213 13.2741 23.0575C12.1693 22.5137 11.1725 21.7719 10.4002 20.8737C10.0133 20.4279 9.67628 19.9476 9.39422 19.4399C9.11643 18.9367 8.89382 18.4095 8.72965 17.8659C8.56793 17.322 8.46914 16.7699 8.42426 16.2095L8.41523 16.1024V15.3689C8.42426 15.097 8.45121 14.8086 8.48719 14.5284C8.52305 14.2482 8.57695 13.9598 8.63977 13.6796C8.70269 13.3995 8.77453 13.1192 8.8643 12.839C9.03223 12.2947 9.24544 11.763 9.50203 11.2486C10.0139 10.2432 10.6786 9.34495 11.4778 8.62807C11.6754 8.44677 11.882 8.28183 12.0975 8.1171C12.3146 7.95952 12.5394 7.81106 12.7711 7.67215C12.9956 7.53204 13.2381 7.40839 13.4807 7.29301C13.6007 7.23314 13.7236 7.17814 13.8489 7.12817C13.9744 7.07882 14.1005 7.02925 14.2261 6.97989C14.4776 6.88097 14.738 6.7986 15.0074 6.72441C15.0703 6.70796 15.1421 6.69151 15.205 6.66677C15.2679 6.65022 15.3397 6.63376 15.4025 6.61731C15.5373 6.5843 15.6721 6.5514 15.8068 6.52667C15.8696 6.51022 15.9415 6.50194 16.0133 6.48548C16.0852 6.46892 16.1481 6.46075 16.2199 6.44419C16.2918 6.43602 16.3547 6.41946 16.4264 6.41129L16.5252 6.39484L16.633 6.37828C16.7048 6.37011 16.7678 6.36183 16.8396 6.35355C16.9205 6.34538 16.9922 6.3371 17.073 6.32882C17.136 6.32065 17.2437 6.31237 17.3066 6.30409C17.3515 6.29591 17.4054 6.29591 17.4503 6.28763L17.5491 6.27946L17.5939 6.27118H17.6479C17.7287 6.2629 17.8005 6.2629 17.8814 6.25473L17.9981 6.24645H18.088C18.1508 6.24645 18.2227 6.23828 18.2855 6.23828C18.5489 6.23004 18.8125 6.23004 19.0759 6.23828C19.5968 6.25473 20.1087 6.31247 20.6026 6.39484C21.5995 6.56796 22.5336 6.85624 23.3868 7.24355C24.2399 7.62269 24.9945 8.09237 25.659 8.60333C25.7039 8.63624 25.7399 8.66925 25.7848 8.70226C25.8206 8.73516 25.8656 8.76817 25.9015 8.80118C25.9823 8.86699 26.0542 8.9329 26.135 8.99882C26.2159 9.06484 26.2877 9.13075 26.3596 9.19667C26.4336 9.26335 26.5055 9.33205 26.5751 9.40269C26.8535 9.67462 27.1139 9.94656 27.3473 10.2268C27.7814 10.7402 28.1632 11.2891 28.488 11.8666L28.542 11.9655L28.5959 12.0644C28.6317 12.1303 28.6677 12.1962 28.6946 12.2623C28.7305 12.3282 28.7575 12.3858 28.7934 12.4517C28.8204 12.5176 28.8563 12.5754 28.8832 12.6413C28.991 12.8885 29.0988 13.1274 29.1797 13.3499C29.3143 13.7126 29.4131 14.034 29.494 14.3141C29.5063 14.3691 29.5411 14.4176 29.5912 14.4498C29.6413 14.482 29.7029 14.4954 29.7634 14.4872C29.8982 14.4789 29.9968 14.3801 29.9968 14.2565C30.0059 13.9598 29.9968 13.6055 29.952 13.2016Z" fill="url(#paint0_linear_3_95)"/>
</g>
<defs>
<linearGradient id="paint0_linear_3_95" x1="1499.85" y1="3662.95" x2="1499.85" y2="931.488" gradientUnits="userSpaceOnUse">
<stop stop-color="#FFF100"/>
<stop offset="1" stop-color="#F05A28"/>
</linearGradient>
<clipPath id="clip0_3_95">
<rect width="30" height="30" fill="white"/>
</clipPath>
</defs>
</svg>
