<svg width="30" height="30" viewBox="0 0 30 30" fill="none" xmlns="http://www.w3.org/2000/svg">
<g clip-path="url(#clip0_3_253)">
<path d="M14.9013 0.793978C14.6501 0.807021 14.4039 0.871216 14.1773 0.982797L4.29746 5.84779C4.04174 5.97364 3.81706 6.15677 3.64009 6.38356C3.46312 6.61035 3.33841 6.87498 3.27523 7.1578L0.837809 18.0858C0.781525 18.3376 0.775225 18.5983 0.819284 18.8527C0.863343 19.107 0.956865 19.3497 1.09431 19.5664C1.12764 19.6194 1.16348 19.6707 1.20171 19.72L8.04014 28.4825C8.21715 28.7092 8.44186 28.8923 8.69758 29.0181C8.9533 29.1439 9.23346 29.2092 9.51725 29.2091L20.4838 29.2065C20.7675 29.2067 21.0475 29.1416 21.3033 29.0161C21.559 28.8905 21.7837 28.7077 21.9609 28.4812L28.7968 19.7175C28.9739 19.4906 29.0987 19.2259 29.1619 18.9429C29.2251 18.66 29.2251 18.3661 29.1619 18.0832L26.7207 7.15519C26.6576 6.87238 26.5328 6.60774 26.3559 6.38095C26.1789 6.15416 25.9542 5.97104 25.6985 5.84518L15.8174 0.982797C15.5323 0.842437 15.2173 0.777511 14.9013 0.793978Z" fill="#326CE5"/>
<path d="M14.896 0.00269151C14.6311 0.0169922 14.3716 0.0851686 14.1328 0.203229L3.70207 5.33777C3.43213 5.47064 3.19495 5.66396 3.00813 5.90338C2.82132 6.14279 2.68968 6.42215 2.62298 6.7207L0.0503591 18.2568C-0.00923752 18.5227 -0.0160131 18.7982 0.0304342 19.0668C0.0768816 19.3355 0.175606 19.5918 0.32076 19.8208C0.356072 19.8764 0.394022 19.9303 0.434475 19.9822L7.65324 29.233C7.8401 29.4723 8.0773 29.6656 8.34724 29.7984C8.61718 29.9311 8.91291 30.0001 9.21248 30L20.7893 29.9974C21.0888 29.9976 21.3844 29.9289 21.6544 29.7963C21.9243 29.6638 22.1615 29.4708 22.3485 29.2317L29.5648 19.9796C29.7515 19.7403 29.8832 19.461 29.9499 19.1625C30.0166 18.864 30.0167 18.554 29.9502 18.2555L27.3737 6.7181C27.3069 6.41978 27.1752 6.14068 26.9884 5.9015C26.8015 5.66232 26.5645 5.46921 26.2947 5.33647L15.8639 0.201927C15.5627 0.0536504 15.2299 -0.0148608 14.896 0.00269151ZM14.9011 0.794425C15.2171 0.777958 15.5321 0.842884 15.8172 0.983243L25.6982 5.84563C25.954 5.97148 26.1786 6.15461 26.3556 6.3814C26.5326 6.60819 26.6573 6.87282 26.7205 7.15564L29.1617 18.0836C29.2249 18.3666 29.2249 18.6604 29.1616 18.9434C29.0984 19.2263 28.9736 19.491 28.7965 19.7179L21.9606 28.4816C21.7835 28.7081 21.5587 28.891 21.303 29.0165C21.0473 29.1421 20.7672 29.2072 20.4835 29.207L9.51701 29.2096C9.23321 29.2096 8.95305 29.1443 8.69733 29.0186C8.44161 28.8928 8.2169 28.7097 8.0399 28.483L1.20147 19.7205C1.16324 19.6711 1.12739 19.6198 1.09407 19.5668C0.956618 19.3501 0.863097 19.1074 0.819039 18.8531C0.77498 18.5988 0.781279 18.338 0.837563 18.0863L3.27498 7.15825C3.33816 6.87544 3.46287 6.61081 3.63984 6.38402C3.81681 6.15722 4.0415 5.9741 4.29721 5.84825L14.177 0.983255C14.4037 0.871674 14.6498 0.807467 14.9011 0.794425Z" fill="white"/>
<path d="M20.3306 22.6952H16.5536L8.36812 12.1425H6V8.6885H9.85032L18.0393 19.2412H20.3306V16.5095L25.5202 20.9664L20.3306 25.4268V22.6952ZM16.2118 14.5435L18.0393 12.1857H20.3306V14.9173L25.5202 10.4604L20.3306 6V8.73163H16.5536L14.1297 11.8586L16.2118 14.5435ZM10.227 16.8834L8.36812 19.2843H6V22.7384H9.85032L12.3091 19.5682L10.227 16.8834Z" fill="white"/>
</g>
<defs>
<clipPath id="clip0_3_253">
<rect width="30" height="30" fill="white"/>
</clipPath>
</defs>
</svg>
