<svg width="30" height="30" viewBox="0 0 30 30" fill="none" xmlns="http://www.w3.org/2000/svg">
<g clip-path="url(#clip0_3_93)">
<path d="M22.9688 0H7.03125C3.148 0 0 3.148 0 7.03125V22.9688C0 26.852 3.148 30 7.03125 30H22.9688C26.852 30 30 26.852 30 22.9688V7.03125C30 3.148 26.852 0 22.9688 0Z" fill="#F4F2ED"/>
<mask id="mask0_3_93" style="mask-type:luminance" maskUnits="userSpaceOnUse" x="6" y="3" width="18" height="24">
<path d="M6.5625 3.28125H23.5397V26.7188H6.5625V3.28125Z" fill="white"/>
</mask>
<g mask="url(#mask0_3_93)">
<path fill-rule="evenodd" clip-rule="evenodd" d="M23.2502 14.5808C23.2502 19.2222 19.5717 22.9848 15.034 22.9848C10.4964 22.9848 6.81784 19.2222 6.81784 14.5808C6.81784 9.93938 10.4964 6.17673 15.034 6.17673C19.5717 6.17673 23.2502 9.93938 23.2502 14.5808Z" fill="#D33833"/>
<path d="M7.15267 16.6622C7.15267 16.6622 6.55782 7.89819 14.6332 7.64776L14.0698 6.70874L9.6879 8.17991L8.43587 9.61968L7.3404 11.7169L6.71439 14.1582L6.90212 15.7858" fill="#EF3D3A"/>
<path d="M9.40664 8.84765C7.965 10.3227 7.07297 12.3593 7.07297 14.6122C7.07297 16.8647 7.965 18.9014 9.40652 20.3762C10.8489 21.8509 12.8365 22.7608 15.0339 22.7608C17.2314 22.7608 19.2191 21.8509 20.6612 20.3762C22.1027 18.9014 22.995 16.8647 22.995 14.6122C22.995 12.3593 22.1027 10.3227 20.6612 8.84776C19.2191 7.37331 17.2314 6.46335 15.0339 6.46312C12.8365 6.46335 10.8489 7.37331 9.40652 8.84776L9.40664 8.84765ZM9.04172 20.7329C7.50961 19.1661 6.5625 17.0007 6.5625 14.6122C6.5625 12.2232 7.50961 10.0581 9.04172 8.49116C10.5734 6.92401 12.6936 5.95265 15.0339 5.95288C17.3742 5.95265 19.4946 6.92401 21.026 8.49116C22.5582 10.0581 23.5055 12.2235 23.5054 14.6122C23.5055 17.0007 22.5582 19.1661 21.026 20.7329C19.4946 22.3 17.3742 23.2713 15.0339 23.2713C12.6936 23.2713 10.5734 22.3 9.04172 20.7329Z" fill="#231F20"/>
<path fill-rule="evenodd" clip-rule="evenodd" d="M18.4927 14.6275L17.2405 14.8152L15.5503 15.0031L14.4547 15.0342L13.3907 15.0031L12.5768 14.7526L11.8568 13.9702L11.2935 12.3738L11.1682 12.0294L10.417 11.7791L9.97875 11.0592L9.66586 10.0263L10.0102 9.1186L10.8239 8.83689L11.4813 9.14989L11.7943 9.83849L12.1699 9.77591L12.2951 9.61946L12.1699 8.89946L12.1385 7.99173L12.3264 6.73982L12.319 6.02462L12.8898 5.1122L13.8914 4.39232L15.6442 3.64114L17.5848 3.92275L19.275 5.14349L20.0576 6.39552L20.5583 7.30314L20.6835 9.55677L20.3079 11.4974L19.6193 13.2189L18.962 14.1266" fill="#F0D6B7"/>
<path fill-rule="evenodd" clip-rule="evenodd" d="M17.4284 20.0422L12.9524 20.2301V20.9812L13.328 23.6105L13.1402 23.8296L10.0102 22.7653L9.79102 22.3897L9.47813 18.8529L8.75825 16.7245L8.60168 16.2237L11.1056 14.5022L11.8882 14.1892L12.5768 15.0342L13.1715 15.5664L13.8601 15.7855L14.1731 15.8794L14.5487 17.507L14.8304 17.8513L15.5503 17.6009L15.0495 18.5712L17.7727 19.8545L17.4284 20.0422Z" fill="#335061"/>
<path fill-rule="evenodd" clip-rule="evenodd" d="M10.0102 9.11859L10.8239 8.83687L11.4813 9.14988L11.7943 9.83847L12.1699 9.77589L12.2638 9.40019L12.0761 8.68042L12.2638 6.95894L12.1072 6.0198L12.6707 5.3625L13.8914 4.39218L13.5471 3.92273L11.8255 4.76789L11.1056 5.33121L10.6988 6.20765L10.0727 7.05269L9.88501 8.05441L10.0103 9.11847L10.0102 9.11859Z" fill="#6D6B6D"/>
<path fill-rule="evenodd" clip-rule="evenodd" d="M11.2934 6.17638C11.2934 6.17638 11.7629 5.01833 13.641 4.45489C15.519 3.89157 13.7349 4.0479 13.7349 4.0479L11.7005 4.83048L10.9179 5.61294L10.5736 6.23907L11.2934 6.17638ZM10.3545 8.89946C10.3545 8.89946 9.69716 6.70841 12.2012 6.39552L12.1072 6.01981L10.3858 6.42681L9.88501 8.05442L10.0103 9.11849L10.3545 8.89946Z" fill="#DCD9D8"/>
<path fill-rule="evenodd" clip-rule="evenodd" d="M11.356 11.8104L11.7659 11.4132C11.7659 11.4132 11.9509 11.4348 11.9821 11.6538C12.0134 11.8731 12.1072 13.8449 13.4531 14.9092C13.5759 15.0063 12.4516 14.7526 12.4516 14.7526L11.4499 13.1876M17.1155 11.2157C17.1155 11.2157 17.1885 10.2669 17.4439 10.3399C17.6994 10.4129 17.6994 10.6684 17.6994 10.6684C17.6994 10.6684 17.0789 11.0698 17.1155 11.2157Z" fill="#F7E4CD"/>
<path d="M19.7133 7.74142C19.7133 7.74142 19.1973 7.85041 19.1498 8.30486C19.1023 8.75943 19.7133 8.39873 19.8071 8.36744M15.9259 7.77283C15.9259 7.77283 15.2373 7.8667 15.2373 8.30486C15.2373 8.74314 16.0199 8.71185 16.2389 8.524" fill="#F7E4CD"/>
<path fill-rule="evenodd" clip-rule="evenodd" d="M11.6691 9.80718C11.6691 9.80718 10.4796 9.0873 10.3545 9.77589C10.2293 10.4645 9.94747 10.9653 10.5422 11.6852L10.1353 11.5601L9.75974 10.5898L9.63458 9.65074L10.3545 8.89956L11.1682 8.96214L11.6378 9.33773L11.6691 9.80718ZM12.2325 7.83527C12.2325 7.83527 12.7645 5.08089 15.4565 4.54874C17.6726 4.1107 18.8367 4.64273 19.275 5.14347C19.275 5.14347 17.3031 2.79609 15.4251 3.51585C13.5471 4.23585 12.1699 5.55046 12.2012 6.3955C12.2545 7.8348 12.2325 7.83527 12.2325 7.83527ZM19.4942 5.45648C19.4942 5.45648 18.5865 5.42519 18.5551 6.23906C18.5551 6.23906 18.5551 6.36421 18.6177 6.48937C18.6177 6.48937 19.3377 5.6755 19.7759 6.11378" fill="#F7E4CD"/>
<path fill-rule="evenodd" clip-rule="evenodd" d="M15.5195 6.57422C15.5195 6.57422 15.3633 5.325 14.2983 6.05122C13.6097 6.52067 13.6724 7.17797 13.7974 7.30325C13.9227 7.4284 13.8886 7.68059 13.984 7.5075C14.0791 7.33442 14.0479 6.7711 14.3922 6.61454C14.7365 6.45809 15.3009 6.28336 15.5195 6.57422Z" fill="#F7E4CD"/>
<path fill-rule="evenodd" clip-rule="evenodd" d="M12.5768 15.0342L9.63469 16.3488C9.63469 16.3488 10.8553 21.2004 10.2293 22.7029L9.79102 22.5464L9.75973 20.6997L8.9461 17.1941L8.60168 16.2237L11.6691 14.158L12.5768 15.0342ZM12.8793 17.7177L13.2967 18.227V20.1049H12.7958C12.7958 20.1049 12.7334 18.7904 12.7334 18.6339C12.7334 18.4773 12.7958 17.9139 12.7958 17.9139M12.8898 20.3867L11.4812 20.4492L11.8882 20.731L12.8898 20.8874" fill="#49728B"/>
<path fill-rule="evenodd" clip-rule="evenodd" d="M17.7101 20.0736L18.8681 20.0424L19.1498 22.922L17.9604 23.0785L17.7101 20.0736Z" fill="#335061"/>
<path fill-rule="evenodd" clip-rule="evenodd" d="M18.023 20.0736L19.7759 19.9798C19.7759 19.9798 20.4957 18.1643 20.4957 18.0704C20.4957 17.9766 21.1218 15.4412 21.1218 15.4412L19.7132 13.9702L19.4316 13.7197L18.6803 14.471V17.3818L18.023 20.0736Z" fill="#335061"/>
<path fill-rule="evenodd" clip-rule="evenodd" d="M18.8054 19.8545L17.7101 20.0736L17.8665 20.9501C18.2734 21.1379 18.962 20.6371 18.962 20.6371M18.8368 14.377L21.0279 16.0046L21.0905 15.2535L19.4316 13.7197L18.8368 14.377Z" fill="#49728B"/>
<path fill-rule="evenodd" clip-rule="evenodd" d="M13.976 26.24L13.328 23.6105L13.0057 21.6702L12.9524 20.2301L15.8854 20.0739L17.7101 20.0736L17.5442 23.3604L17.8259 25.8957L17.7946 26.3652L15.4158 26.5531L13.976 26.24Z" fill="white"/>
<path fill-rule="evenodd" clip-rule="evenodd" d="M17.3031 20.0423C17.3031 20.0423 17.1467 23.2976 17.6162 25.6137C17.6162 25.6137 16.6772 26.2085 15.2999 26.365L17.9291 26.271L18.2421 26.0832L17.8665 20.9501L17.7727 19.8545" fill="#DCD9D8"/>
<path fill-rule="evenodd" clip-rule="evenodd" d="M19.2032 22.6718L20.4239 22.3275L22.74 22.2023L23.0843 21.1382L22.4583 19.2914L21.7385 19.1975L20.7368 19.5105L19.7759 19.9798L19.2657 19.8861L18.8681 20.0423" fill="white"/>
<path fill-rule="evenodd" clip-rule="evenodd" d="M19.1811 22.0456C19.1811 22.0456 19.9949 21.67 20.1202 21.7013L19.7759 19.9798L20.1827 19.8233C20.1827 19.8233 20.4645 21.4508 20.4645 21.6387C20.4645 21.6387 22.2172 21.7326 22.3737 21.7326C22.3737 21.7326 22.7493 21.0127 22.6554 20.2614L22.9997 21.2631L23.031 21.8264L22.5302 22.5777L21.9668 22.7029L21.0279 22.6716L20.7149 22.2647L19.6193 22.4211L19.275 22.5464" fill="#DCD9D8"/>
<path d="M17.9511 19.8236L17.2625 18.0708L16.5427 17.0378C16.5427 17.0378 16.6991 16.5996 16.9182 16.5996H17.6381L18.3267 16.85L18.2641 18.0081L17.9511 19.8236Z" fill="white"/>
<path fill-rule="evenodd" clip-rule="evenodd" d="M18.0857 19.2285C18.0857 19.2285 17.2092 17.5384 17.2092 17.288C17.2092 17.288 17.3657 16.9124 17.5848 17.0063C17.8039 17.1001 18.2735 17.3505 18.2735 17.3505V16.7558L17.2092 16.5367L16.4893 16.6305L17.7101 19.5102L17.9604 19.5416" fill="#DCD9D8"/>
<path d="M14.2577 15.0973L13.3906 15.0031L12.5768 14.7526V15.0342L12.9744 15.4727L14.2264 16.0362" fill="white"/>
<path fill-rule="evenodd" clip-rule="evenodd" d="M12.8586 15.1911C12.8586 15.1911 13.8289 15.598 14.142 15.5041L14.1731 15.8794L13.2968 15.692L12.7646 15.3164L12.8586 15.1911Z" fill="#DCD9D8"/>
<path fill-rule="evenodd" clip-rule="evenodd" d="M19.1998 16.7062C18.6687 16.6906 18.1888 16.6275 17.7688 16.509C17.7973 16.3368 17.7438 16.1678 17.7867 16.0437C17.9039 15.9594 18.1001 15.9607 18.2771 15.9409C18.1241 15.8657 17.9091 15.8359 17.7323 15.8794C17.7282 15.7599 17.6747 15.6858 17.6421 15.5923C17.9407 15.4856 18.6457 14.787 19.0421 15.0183C19.2312 15.1283 19.3114 15.7569 19.3261 16.0626C19.3383 16.3162 19.303 16.5719 19.1998 16.7062Z" fill="#D33833"/>
<path d="M19.1998 16.7062C18.6687 16.6906 18.1888 16.6275 17.7688 16.509C17.7973 16.3368 17.7438 16.1678 17.7867 16.0437C17.9039 15.9594 18.1001 15.9607 18.2771 15.9409C18.1241 15.8657 17.9091 15.8359 17.7323 15.8794C17.7282 15.7599 17.6747 15.6858 17.6421 15.5923C17.9407 15.4856 18.6457 14.787 19.0421 15.0183C19.2312 15.1283 19.3114 15.7569 19.3261 16.0626C19.3383 16.3162 19.303 16.5719 19.1998 16.7062Z" stroke="#D33833" stroke-width="2.5"/>
<path fill-rule="evenodd" clip-rule="evenodd" d="M16.6601 15.838C16.6587 15.8782 16.6569 15.9186 16.6554 15.9592C16.4896 16.0682 16.2218 16.0668 16.0398 16.1584C16.3082 16.1701 16.5193 16.2347 16.702 16.3257L16.6902 16.6294C16.3862 16.8374 16.1086 17.1473 15.7507 17.3425C15.5815 17.4347 14.9877 17.6722 14.8077 17.6303C14.7057 17.6066 14.6966 17.4802 14.6559 17.3611C14.5691 17.1059 14.3694 16.6998 14.3519 16.3158C14.3298 15.8306 14.2808 15.0177 14.8036 15.1175C15.2253 15.198 15.7159 15.3923 16.0424 15.5707C16.2419 15.6798 16.3574 15.8147 16.6601 15.838Z" fill="#D33833"/>
<path d="M16.6601 15.838C16.6587 15.8782 16.6569 15.9186 16.6554 15.9592C16.4896 16.0682 16.2218 16.0668 16.0398 16.1584C16.3082 16.1701 16.5193 16.2347 16.702 16.3257L16.6902 16.6294C16.3862 16.8374 16.1086 17.1473 15.7507 17.3425C15.5815 17.4347 14.9877 17.6722 14.8077 17.6303C14.7057 17.6066 14.6966 17.4802 14.6559 17.3611C14.5691 17.1059 14.3694 16.6998 14.3519 16.3158C14.3298 15.8306 14.2808 15.0177 14.8036 15.1175C15.2253 15.198 15.7159 15.3923 16.0424 15.5707C16.2419 15.6798 16.3574 15.8147 16.6601 15.838Z" stroke="#D33833" stroke-width="2.5"/>
<path fill-rule="evenodd" clip-rule="evenodd" d="M16.962 16.4168C16.9156 16.1525 16.862 16.0772 16.8827 15.8466C17.5874 15.3768 17.7197 16.6536 16.962 16.4168Z" fill="#D33833"/>
<path d="M16.962 16.4168C16.9156 16.1525 16.862 16.0772 16.8827 15.8466C17.5874 15.3768 17.7197 16.6536 16.962 16.4168Z" stroke="#D33833" stroke-width="2.5"/>
<path fill-rule="evenodd" clip-rule="evenodd" d="M17.9824 16.6309C17.9824 16.6309 17.7632 16.3179 17.9197 16.224C18.0763 16.13 18.2329 16.2241 18.3267 16.0676C18.4206 15.911 18.3267 15.8171 18.358 15.6293C18.3892 15.4416 18.5459 15.4101 18.7023 15.3789C18.8588 15.3476 19.297 15.285 19.3596 15.4416L19.1718 14.8781L18.7962 14.753L17.6067 15.4416L17.5441 15.7859V16.4744M14.6959 17.6639C14.6587 17.1755 14.6181 16.6874 14.5743 16.1995C14.5079 15.4709 14.7492 15.598 15.3809 15.598C15.4773 15.598 15.9749 15.7131 16.0105 15.7859C16.1811 16.1345 15.725 16.057 16.2071 16.32C16.614 16.5418 17.333 16.1852 17.1686 15.692C17.0766 15.5823 16.6891 15.6578 16.5502 15.5857L15.8167 15.2054C15.5055 15.0441 14.7865 14.8087 14.4548 15.0342C13.6144 15.6059 14.5078 17.034 14.8077 17.6303" fill="#EF3D3A"/>
<path fill-rule="evenodd" clip-rule="evenodd" d="M15.5195 6.57421C14.6664 6.37546 14.2425 6.93117 13.9839 7.5075C13.753 7.4516 13.8449 7.13754 13.9032 6.97757C14.0559 6.55757 14.6713 5.99859 15.1741 6.07441C15.3905 6.10699 15.6833 6.30492 15.5195 6.57421ZM19.6761 7.5457L19.7166 7.54722C19.9095 7.94765 20.0762 8.37199 20.3195 8.72543C20.1565 9.105 19.0857 9.44074 19.1023 8.75941C19.3338 8.65816 19.7337 8.73867 19.9389 8.60941C19.8202 8.28363 19.6489 8.00648 19.6761 7.5457ZM15.9563 7.55601C16.1392 7.8914 16.1987 8.24367 16.4588 8.49703C16.5758 8.61117 16.8035 8.75027 16.6907 9.06761C16.6643 9.14238 16.4715 9.30925 16.3602 9.34207C15.9538 9.46207 15.0066 9.36679 15.3273 8.86007C15.6635 8.87578 16.1154 9.07839 16.3666 8.83429C16.1736 8.52586 15.8297 7.91554 15.9563 7.55601ZM19.5236 10.9641C18.9115 11.3572 18.2291 11.7847 17.2262 11.6856C17.0119 11.4993 16.9302 11.0848 17.1384 10.8109C17.2467 10.9972 17.1786 11.3399 17.4806 11.3914C18.0497 11.4887 18.712 11.0434 19.1213 10.8875C19.3751 10.4598 19.0995 10.3023 18.8708 10.0269C18.4027 9.46265 17.7748 8.76328 17.7976 7.91871C17.9868 7.78136 18.0032 8.128 18.0302 8.19105C18.2747 8.76316 18.8898 9.49476 19.3388 9.98425C19.449 10.105 19.6305 10.2206 19.6507 10.3003C19.7089 10.5321 19.4992 10.8098 19.5236 10.9641ZM11.4548 10.5502C11.263 10.4407 11.2173 9.95836 10.9921 9.94464C10.6703 9.92519 10.729 10.5704 10.7303 10.9477C10.5088 10.7466 10.4698 10.1273 10.6325 9.80918C10.447 9.71812 10.3642 9.90972 10.2613 9.97722C10.3935 9.01664 11.6665 9.53168 11.4548 10.5502ZM19.9132 11.3641C19.6283 11.9064 19.2253 12.5036 18.3893 12.5209C18.3723 12.3458 18.3593 12.0793 18.3902 11.9739C19.0294 11.9125 19.4239 11.5873 19.9132 11.3641ZM15.9081 11.7157C16.4413 11.996 17.4212 12.0261 18.1459 12.0049C18.1848 12.1637 18.1839 12.3599 18.1854 12.5535C17.2538 12.6 16.1523 12.3696 15.9081 11.7157ZM15.8067 12.2385C16.1755 13.1643 17.4428 13.0576 18.5114 13.0322C18.4644 13.1523 18.3623 13.2943 18.2357 13.3457C17.8931 13.485 16.9486 13.5907 16.4732 13.3383C16.1718 13.178 15.9779 12.8157 15.8128 12.6035C15.733 12.501 15.3357 12.2391 15.8067 12.2385Z" fill="#231F20"/>
<path fill-rule="evenodd" clip-rule="evenodd" d="M19.479 17.345C19.0464 18.0861 18.6323 18.8473 18.1189 19.5009C18.3342 18.8681 18.4263 17.809 18.4588 17.0016C18.909 16.7909 19.2947 17.049 19.479 17.345Z" fill="#81B0C4"/>
<path fill-rule="evenodd" clip-rule="evenodd" d="M21.8074 20.0086C21.323 20.1055 20.9825 20.5764 20.51 20.5461C20.7697 20.1801 21.2249 20.0256 21.8074 20.0086ZM22.0211 20.7667C21.6263 20.8084 21.1624 20.8724 20.762 20.8393C20.9516 20.5498 21.682 20.6497 22.0211 20.7667ZM22.1579 21.4204C21.7141 21.43 21.1625 21.4211 20.7408 21.3857C20.9903 21.1177 21.8701 21.2863 22.1579 21.4204Z" fill="#231F20"/>
<path fill-rule="evenodd" clip-rule="evenodd" d="M18.6441 23.209C18.7077 23.7663 18.9287 24.3311 18.9009 24.9414C18.6557 25.0241 18.5147 25.0965 18.186 25.0961C18.1628 24.5774 18.0934 23.7844 18.1141 23.2898C18.2757 23.3006 18.5142 23.1744 18.6441 23.209Z" fill="#DCD9D8"/>
<path fill-rule="evenodd" clip-rule="evenodd" d="M17.9286 14.9954C17.7059 15.1409 17.516 15.3225 17.302 15.4778C16.8275 15.5012 16.5686 15.4448 16.2198 15.1724C16.2255 15.1505 16.2606 15.1603 16.2619 15.1335C16.7699 15.3599 17.4157 15.0412 17.9286 14.9954Z" fill="#F0D6B7"/>
<path fill-rule="evenodd" clip-rule="evenodd" d="M15.2618 18.4582C15.4014 17.8534 15.9483 17.5402 16.4449 17.2071C16.9575 17.8577 17.2694 18.6943 17.6126 19.5017C16.8015 19.2572 15.9727 18.8604 15.2618 18.4582Z" fill="#81B0C4"/>
<path fill-rule="evenodd" clip-rule="evenodd" d="M18.1141 23.2899C18.0934 23.7844 18.1628 24.5774 18.186 25.0961C18.5147 25.0965 18.6557 25.0241 18.9009 24.9414C18.9287 24.3311 18.7077 23.7663 18.6441 23.209C18.5142 23.1744 18.2757 23.3006 18.1141 23.2899ZM12.9951 20.4777C13.2119 22.4706 13.526 24.1458 14.1019 25.9105C15.3799 26.2985 16.9207 26.3324 18.0504 25.9822C17.843 24.9861 17.9337 23.7736 17.8124 22.7107C17.721 21.9118 17.7676 21.1081 17.6423 20.293C16.2735 20.0082 14.3386 20.2264 12.9951 20.4777ZM17.966 20.3054C17.9544 21.1614 18.0043 22.0056 18.0697 22.8626C18.3983 22.8132 18.6213 22.7803 18.9267 22.7134C18.8276 21.8884 18.8398 20.96 18.6377 20.2302C18.4043 20.2324 18.1987 20.2275 17.966 20.3054ZM19.6332 20.1675C19.4773 20.1318 19.2956 20.1661 19.1467 20.169C19.2166 20.8668 19.3867 21.6366 19.4464 22.369C19.6809 22.3763 19.8062 22.2656 19.9991 22.2285C20.0094 21.5856 19.9428 20.6999 19.6332 20.1675ZM22.1576 22.474C22.6464 22.3553 22.9537 21.7567 22.817 21.1419C22.7252 20.7287 22.5619 19.9508 22.387 19.6865C22.2578 19.491 21.9075 19.235 21.6278 19.4141C21.1727 19.7056 20.371 19.7902 20.0393 20.1428C20.2056 20.6968 20.2573 21.4579 20.3259 22.1598C20.8944 22.1952 21.5939 22.0034 22.0666 22.2069C21.7365 22.3139 21.3083 22.3147 21.0231 22.4706C21.2562 22.5831 21.8018 22.5604 22.1576 22.474ZM17.6126 19.5016C17.2693 18.6943 16.9575 17.8577 16.4449 17.2071C15.9483 17.5402 15.4014 17.8534 15.2618 18.4582C15.9726 18.8604 16.8015 19.2572 17.6126 19.5016ZM18.4588 17.0016C18.4263 17.809 18.3342 18.8681 18.1189 19.5009C18.6323 18.8473 19.0464 18.0861 19.479 17.345C19.2946 17.049 18.909 16.7909 18.4588 17.0016ZM17.4995 16.6607C17.3051 16.6398 17.14 16.8843 16.8871 16.7786C16.8292 16.8427 16.7764 16.912 16.7174 16.9745C17.2759 17.6476 17.5297 18.6026 17.9611 19.3936C18.1926 18.6338 18.1659 17.8013 18.2169 16.972C17.8989 16.9922 17.7224 16.6843 17.4995 16.6607ZM16.8827 15.8466C16.862 16.0771 16.9155 16.1525 16.9619 16.4168C17.7197 16.6536 17.5874 15.3768 16.8827 15.8466ZM16.0424 15.5707C15.7159 15.3923 15.2253 15.1981 14.8036 15.1175C14.2808 15.0176 14.3298 15.8306 14.3519 16.3158C14.3694 16.6998 14.5691 17.1059 14.6559 17.3611C14.6966 17.4802 14.7057 17.6066 14.8076 17.6303C14.9877 17.6722 15.5815 17.4347 15.7507 17.3425C16.1086 17.1473 16.3862 16.8374 16.6902 16.6294L16.702 16.3257C16.5193 16.2347 16.3082 16.1701 16.0398 16.1584C16.2218 16.0668 16.4896 16.0682 16.6554 15.9592C16.6569 15.9186 16.6587 15.8782 16.6601 15.838C16.3573 15.8147 16.2419 15.6798 16.0424 15.5707ZM12.9235 15.0042C12.6526 15.2794 13.6836 15.6544 14.012 15.6745C14.0101 15.5005 14.1111 15.3363 14.0909 15.2114C13.701 15.143 13.1885 15.1882 12.9235 15.0042ZM16.2619 15.1335C16.2606 15.1603 16.2255 15.1505 16.2198 15.1724C16.5685 15.4448 16.8274 15.5012 17.302 15.4778C17.516 15.3225 17.7059 15.1409 17.9286 14.9954C17.4157 15.0413 16.7699 15.3599 16.2619 15.1335ZM19.3261 16.0625C19.3114 15.7569 19.2312 15.1283 19.0423 15.0183C18.6457 14.7868 17.9407 15.4856 17.6421 15.5923C17.6747 15.6858 17.7282 15.7598 17.7323 15.8794C17.9091 15.8359 18.1241 15.8657 18.2771 15.9409C18.1001 15.9607 17.9039 15.9594 17.7867 16.0437C17.7438 16.1678 17.7973 16.3368 17.7688 16.509C18.1888 16.6275 18.6687 16.6906 19.1998 16.7061C19.303 16.5718 19.3383 16.3161 19.3261 16.0625ZM12.4673 15.2704C12.3823 15.2097 11.8066 14.4606 11.7278 14.4918C10.686 14.9025 9.71202 15.6129 8.84155 16.2847C9.67148 18.0655 10.0064 20.2472 10.0657 22.3499C11.0163 22.7946 11.8513 23.4355 13.1414 23.5024C12.9921 22.4463 12.8558 21.504 12.7711 20.5096C12.4469 20.3729 11.9819 20.5158 11.6785 20.4673C11.676 20.1016 12.1418 20.3072 12.1807 20.0613C12.2099 19.8754 11.9243 19.8613 12.0173 19.5686C12.2544 19.6547 12.379 19.8451 12.6319 19.9166C12.863 19.4111 12.6287 18.5166 12.662 18.094C12.6683 18.0147 12.7016 17.6545 12.8792 17.7177C13.0366 17.7736 12.8703 18.6756 12.8876 19.0756C12.9033 19.444 12.843 19.8006 12.9922 20.0318C14.2729 19.8564 15.5622 19.7508 16.8544 19.7155C16.5576 19.5881 16.2051 19.4677 15.8187 19.2498C15.6091 19.1317 14.9487 18.8859 14.8882 18.687C14.7917 18.3698 15.1413 18.201 15.2011 17.9291C14.5719 18.2723 14.4491 17.6002 14.3003 17.124C14.1654 16.6928 14.0886 16.3706 14.0556 16.1218C13.5135 15.8634 12.934 15.6018 12.4673 15.2704ZM18.7755 14.5823C19.6434 14.1615 19.7999 16.1552 19.4597 16.7975C19.5123 16.9891 19.6931 17.0624 19.7669 17.2347C19.2826 18.1023 18.7446 18.9122 18.2504 19.7695C18.618 19.5408 19.1432 19.7286 19.5757 19.5573C19.7339 19.4949 19.8484 19.1329 19.968 18.8433C20.2973 18.0465 20.6432 17.042 20.7969 16.2817C20.8317 16.1085 20.9263 15.731 20.9051 15.5768C20.8672 15.3007 20.4927 15.0961 20.3021 14.9254C19.9512 14.61 19.7301 14.3325 19.3639 14.0377C19.2156 14.2569 18.8969 14.4041 18.7755 14.5823ZM10.4824 6.88547C10.0689 7.34051 10.1555 8.19329 10.2055 8.79973C10.9532 8.32958 11.9453 8.837 11.9359 9.6368C12.2927 9.62731 12.0692 9.19102 12.0047 8.91C11.7936 7.99207 12.3601 6.99469 12.0303 6.15528C11.39 6.20379 10.8641 6.46536 10.4824 6.88547ZM13.4416 4.24442C12.5053 4.50985 11.3054 5.19012 10.9207 6.03118C11.2186 5.98782 11.4254 5.8377 11.7193 5.81907C11.8303 5.8118 11.9759 5.86571 12.1035 5.83395C12.3579 5.77079 12.5726 5.20043 12.7645 4.98821C12.9516 4.78102 13.1764 4.69243 13.3303 4.50352C13.4291 4.45583 13.5753 4.45911 13.5809 4.31063C13.5381 4.26493 13.493 4.22989 13.4416 4.24442ZM18.3153 4.49403C17.3435 3.94583 15.6987 3.53333 14.665 4.04872C13.8309 4.46461 12.7034 5.15262 12.319 6.02461C12.6782 6.86602 12.2127 7.63711 12.1829 8.49141C12.1671 8.94598 12.3969 9.34278 12.4146 9.83766C12.2917 10.0404 11.9162 10.0654 11.6564 10.0514C11.5689 9.61372 11.4158 9.12165 10.965 9.07231C10.3271 9.00247 9.86073 9.53051 9.83179 10.0821C9.79745 10.7309 10.3301 11.8061 11.0849 11.7314C11.3766 11.7026 11.4482 11.4103 11.7659 11.4132C11.9381 11.7568 11.5002 11.8648 11.4553 12.1105C11.4435 12.174 11.4915 12.4221 11.5194 12.5384C11.6565 13.105 11.9623 13.8381 12.2631 14.2693C12.6449 14.8164 13.3951 14.8989 14.2022 14.9525C14.3463 14.642 14.8773 14.6675 15.2234 14.7488C14.8086 14.5845 14.4232 14.1864 14.1036 13.834C13.7367 13.4296 13.365 12.9959 13.3461 12.4675C14.0396 13.4296 14.6126 14.2697 15.8736 14.693C16.8279 15.013 17.9422 14.5463 18.6755 14.0315C18.9797 13.8175 19.1613 13.4779 19.3775 13.1671C20.1867 12.0032 20.5642 10.3419 20.4812 8.73165C20.447 8.06766 20.4485 7.40579 20.2257 6.95907C19.9929 6.49184 19.2053 6.07395 18.7441 6.49653C18.6587 6.04219 19.1276 5.76129 19.6782 5.92465C19.2855 5.41793 18.8735 4.80903 18.3153 4.49403ZM20.1258 19.4775C20.8851 19.0999 22.3041 18.4614 22.7801 19.4789C22.9557 19.8539 23.1619 20.4879 23.2529 20.8751C23.3815 21.4213 23.1135 22.5693 22.5521 22.7527C22.0562 22.9145 21.4776 22.9047 20.8803 22.7847C20.8099 22.7262 20.7316 22.6241 20.6769 22.5178C20.2505 22.5013 19.8511 22.5408 19.5142 22.7161C19.546 23.0315 19.3328 23.0821 19.1327 23.1471C18.9845 23.7349 19.4293 24.5027 19.3229 25.0388C19.2469 25.4207 18.7771 25.4797 18.4317 25.5512C18.4203 25.7634 18.4468 25.9406 18.4704 26.1202C18.3914 26.4111 18.0371 26.5767 17.7016 26.6174C16.5974 26.7502 14.9209 26.8098 13.8588 26.4279C13.5625 25.7009 13.329 24.8167 13.0821 23.9866C12.0463 24.0973 11.2085 23.5397 10.4188 23.1744C10.1453 23.0476 9.76698 22.9778 9.66491 22.7602C9.56577 22.5493 9.60632 22.1455 9.58171 21.7641C9.51925 20.7897 9.4657 19.8498 9.20835 18.8521C9.0928 18.4044 8.89148 18.0093 8.75097 17.5779C8.62112 17.1782 8.39425 16.684 8.33507 16.2853C8.24741 15.6943 8.80382 15.6615 9.1596 15.4055C9.70956 15.0095 10.1413 14.7905 10.7369 14.4332C10.9134 14.3273 11.4455 14.0595 11.506 13.9361C11.6263 13.6914 11.2994 13.3465 11.2121 13.1548C11.0739 12.8516 11.0018 12.594 10.982 12.2948C10.4823 12.2159 10.1035 11.9184 9.8748 11.5832C9.49628 11.0282 9.23378 10.0015 9.5612 9.22055C9.58698 9.15903 9.71495 9.03809 9.73394 8.94364C9.7712 8.75766 9.66374 8.51028 9.65706 8.31247C9.62273 7.29739 9.82886 6.42282 10.5122 6.11661C10.7896 5.01153 11.7825 4.64415 12.7179 4.09489C13.0676 3.88958 13.453 3.75856 13.8511 3.61208C15.2791 3.08637 17.4702 3.1854 18.6554 4.08176C19.1579 4.4618 19.9612 5.26442 20.2486 5.84543C21.0075 7.37942 20.9536 9.94325 20.4228 11.8093C20.3515 12.0599 20.248 12.4282 20.1035 12.7291C20.0027 12.9393 19.6896 13.3597 19.7276 13.5454C19.7667 13.7372 20.4416 14.2495 20.5863 14.3891C20.8468 14.6405 21.3419 14.9741 21.382 15.2913C21.4251 15.6288 21.2333 16.0907 21.136 16.4165C20.8112 17.5035 20.4942 18.5084 20.1258 19.4775Z" fill="#231F20"/>
<path fill-rule="evenodd" clip-rule="evenodd" d="M15.0596 11.9524C15.1008 11.8976 15.3273 11.8144 15.6442 11.967C15.6442 11.967 15.2686 12.0295 15.2999 12.6558L15.1433 12.6244C15.1433 12.6244 14.9816 12.0566 15.0596 11.9524Z" fill="#F7E4CD"/>
<path fill-rule="evenodd" clip-rule="evenodd" d="M17.8039 17.335C17.8045 17.3579 17.8005 17.3808 17.7921 17.4022C17.7837 17.4236 17.7712 17.4431 17.7551 17.4596C17.7391 17.476 17.7199 17.4891 17.6987 17.498C17.6775 17.5069 17.6548 17.5115 17.6318 17.5115C17.6088 17.5115 17.5861 17.5069 17.5649 17.498C17.5437 17.489 17.5245 17.4759 17.5085 17.4595C17.4925 17.443 17.4799 17.4235 17.4715 17.4021C17.4632 17.3807 17.4592 17.3578 17.4598 17.3348C17.4609 17.29 17.4796 17.2473 17.5118 17.216C17.5439 17.1847 17.587 17.1672 17.6319 17.1672C17.6768 17.1673 17.7199 17.1848 17.752 17.2161C17.7842 17.2474 17.8028 17.2901 17.8039 17.335ZM17.9761 18.1331C17.9761 18.1788 17.9579 18.2225 17.9256 18.2548C17.8933 18.2871 17.8495 18.3052 17.8038 18.3051C17.7582 18.3051 17.7144 18.2869 17.6821 18.2546C17.6499 18.2223 17.6318 18.1785 17.6318 18.1329C17.6318 18.0872 17.65 18.0435 17.6823 18.0112C17.7146 17.9789 17.7584 17.9608 17.8041 17.9609C17.8497 17.9609 17.8935 17.979 17.9258 18.0114C17.958 18.0437 17.9761 18.0875 17.9761 18.1331Z" fill="#1D1919"/>
</g>
</g>
<defs>
<clipPath id="clip0_3_93">
<rect width="30" height="30" fill="white"/>
</clipPath>
</defs>
</svg>
