<svg width="30" height="30" viewBox="0 0 30 30" fill="none" xmlns="http://www.w3.org/2000/svg">
<g clip-path="url(#clip0_3_96)">
<path d="M9.61934 29.5101C8.92254 29.5101 8.26453 29.1918 7.81933 28.6147L1.04531 19.9587C0.600117 19.3816 0.425976 18.6454 0.600117 17.9289L3.01945 7.12385C3.17426 6.40746 3.63879 5.83035 4.27758 5.51204L14.0711 0.696377C14.3808 0.537341 14.7292 0.457703 15.0776 0.457703C15.426 0.457703 15.7743 0.537221 16.084 0.696498L25.8776 5.49216C26.5163 5.81047 26.9808 6.38758 27.1356 7.10397L29.5549 17.909C29.7098 18.6254 29.5549 19.3617 29.1098 19.9388L22.3356 28.5948C21.8904 29.1519 21.2324 29.4902 20.5356 29.4902L9.61957 29.5101H9.61934Z" fill="#326DE6"/>
<path d="M15.058 0.955168C15.3291 0.955168 15.6 1.01481 15.8516 1.1342L25.6452 5.92987C26.1484 6.18854 26.5355 6.66613 26.6516 7.22336L29.0709 18.0284C29.2064 18.6055 29.0709 19.2025 28.7032 19.6601L21.9291 28.3163C21.5807 28.7738 21.0387 29.0325 20.4775 29.0325H9.61933C9.05801 29.0325 8.51613 28.7738 8.16773 28.3163L1.39359 19.6601C1.04519 19.2025 0.909608 18.6055 1.02586 18.0284L3.44519 7.22336C3.58066 6.64625 3.9484 6.16866 4.4516 5.92987L14.2453 1.11445C14.4969 1.01493 14.7872 0.955289 15.0581 0.955289L15.058 0.955168ZM15.058 0.0198669C14.6516 0.0198669 14.2452 0.119385 13.858 0.298421L4.06453 5.11408C3.29027 5.49216 2.7484 6.18854 2.5548 7.0442L0.135467 17.8494C-0.0580092 18.705 0.135467 19.5806 0.67746 20.2771L7.4516 28.9331C7.97426 29.6096 8.76773 29.9877 9.6 29.9877H20.458C21.2903 29.9877 22.0839 29.6096 22.6064 28.9331L29.3807 20.277C29.9225 19.6005 30.1161 18.705 29.9225 17.8493L27.5032 7.0442C27.3097 6.18854 26.7677 5.49216 25.9936 5.11408L16.2387 0.298301C15.8709 0.119385 15.4645 0.0198669 15.058 0.0198669Z" fill="white"/>
<path d="M24.8709 17.1728C24.8516 17.1728 24.8516 17.1728 24.8709 17.1728H24.8516C24.8323 17.1728 24.8129 17.1728 24.8129 17.1529C24.7743 17.1529 24.7356 17.133 24.6968 17.133C24.5613 17.1131 24.4452 17.0933 24.3291 17.0933C24.2709 17.0933 24.2129 17.0933 24.1355 17.0733H24.1161C23.7097 17.0335 23.3807 16.9937 23.0709 16.8942C22.9355 16.8345 22.8968 16.755 22.858 16.6753C22.858 16.6554 22.8387 16.6554 22.8387 16.6356L22.5871 16.556C22.7059 15.6199 22.6601 14.6695 22.4516 13.7501C22.2403 12.8231 21.8735 11.941 21.3677 11.1434L21.5613 10.9643V10.9246C21.5613 10.8251 21.5807 10.7256 21.658 10.626C21.8903 10.4071 22.1807 10.2281 22.5291 10.0092C22.5871 9.96941 22.6451 9.94953 22.7032 9.90965C22.8193 9.85001 22.9161 9.79037 23.0323 9.71073C23.0516 9.69086 23.0903 9.67098 23.1291 9.63122C23.1484 9.61122 23.1677 9.61122 23.1677 9.59134C23.4387 9.35254 23.4968 8.95459 23.3032 8.6958C23.2064 8.55652 23.0323 8.477 22.858 8.477C22.7033 8.477 22.5677 8.53664 22.4323 8.63616L22.3936 8.67592C22.3549 8.6958 22.3355 8.73567 22.2968 8.75555C22.2 8.85507 22.1225 8.93459 22.0452 9.03411C22.0065 9.07387 21.9679 9.13363 21.9097 9.17339C21.6387 9.47194 21.3871 9.71073 21.1355 9.88977C21.0775 9.92953 21.0195 9.94953 20.9613 9.94953C20.9227 9.94953 20.8839 9.94953 20.8452 9.92953H20.8065L20.5741 10.0888C20.3225 9.81025 20.0516 9.57146 19.7807 9.33266C18.614 8.39509 17.2099 7.82179 15.7355 7.68098L15.7161 7.4223L15.6775 7.38254C15.6193 7.32278 15.542 7.26314 15.5225 7.12387C15.5032 6.80543 15.542 6.44724 15.5807 6.04929V6.02941C15.5807 5.96965 15.6 5.89013 15.6193 5.83037C15.6387 5.7111 15.658 5.59158 15.6775 5.4523V5.27326C15.6775 4.91507 15.4064 4.61664 15.0775 4.61664C14.9225 4.61664 14.7677 4.69616 14.6516 4.81555C14.5356 4.93495 14.4775 5.09411 14.4775 5.27326V5.43242C14.4775 5.5717 14.4968 5.6911 14.5355 5.81049C14.5548 5.87025 14.5548 5.92989 14.5741 6.00953V6.02941C14.6128 6.42736 14.6709 6.78555 14.6323 7.10399C14.6129 7.24326 14.5355 7.3029 14.4775 7.36266L14.4388 7.40242L14.4193 7.6611C14.0709 7.70086 13.7225 7.74061 13.3741 7.82025C11.8839 8.15857 10.5677 8.93471 9.54199 10.0489L9.3484 9.90965H9.30973C9.27106 9.90965 9.23227 9.92953 9.19359 9.92953C9.13547 9.92953 9.07746 9.90965 9.01934 9.86989C8.76773 9.69086 8.51613 9.43206 8.2452 9.13363C8.20652 9.09387 8.16785 9.03411 8.10973 8.99435C8.03227 8.89483 7.95481 8.81519 7.85801 8.7158C7.83867 8.6958 7.8 8.67604 7.76133 8.63616C7.74199 8.61628 7.72266 8.61628 7.72266 8.5964C7.60274 8.49454 7.45234 8.43829 7.2968 8.43712C7.12254 8.43712 6.9484 8.51676 6.8516 8.65604C6.65801 8.91471 6.71613 9.31266 6.98707 9.55146C7.00641 9.55146 7.00641 9.57146 7.02574 9.57146C7.06441 9.59134 7.08387 9.6311 7.12254 9.65098C7.23867 9.73049 7.33547 9.79025 7.4516 9.85001C7.50973 9.86989 7.56774 9.90965 7.62586 9.94953C7.97414 10.1683 8.26453 10.3475 8.4968 10.5664C8.59359 10.6658 8.59359 10.7653 8.59359 10.8648V10.9046L8.78707 11.0837C8.7484 11.1434 8.70973 11.1833 8.69027 11.2429C7.72254 12.815 7.35481 14.6656 7.60641 16.4963L7.35481 16.5758C7.35481 16.5958 7.33547 16.5958 7.33547 16.6156C7.2968 16.6952 7.23867 16.7748 7.12254 16.8345C6.83227 16.934 6.48387 16.9739 6.07746 17.0136H6.05801C6 17.0136 5.92254 17.0136 5.86453 17.0335C5.7484 17.0335 5.63227 17.0534 5.4968 17.0733C5.45813 17.0733 5.41945 17.0933 5.38067 17.0933C5.36133 17.0933 5.34199 17.0933 5.32254 17.1131C4.97414 17.1927 4.76121 17.531 4.81934 17.8493C4.87746 18.128 5.12906 18.3071 5.43867 18.3071C5.4968 18.3071 5.53547 18.3071 5.59359 18.2871C5.61293 18.2871 5.63227 18.2871 5.63227 18.2672C5.67094 18.2672 5.70961 18.2474 5.74828 18.2474C5.88387 18.2076 5.98067 18.1678 6.0968 18.1081C6.15481 18.0882 6.21281 18.0483 6.27094 18.0286H6.29027C6.65801 17.8892 6.98707 17.7698 7.2968 17.73H7.33547C7.4516 17.73 7.52906 17.7897 7.58707 17.8295C7.60641 17.8295 7.60641 17.8494 7.62574 17.8494L7.8968 17.8097C8.36133 19.2821 9.2516 20.5954 10.4323 21.5506C10.7032 21.7694 10.9741 21.9486 11.2645 22.1277L11.1484 22.3863C11.1484 22.4063 11.1677 22.4063 11.1677 22.426C11.2064 22.5057 11.2451 22.6052 11.2064 22.7445C11.0904 23.043 10.9161 23.3415 10.7032 23.6798V23.6997C10.6645 23.7594 10.6259 23.7992 10.5872 23.8588C10.5097 23.9583 10.4516 24.0578 10.3741 24.1772C10.3548 24.1971 10.3355 24.2369 10.3161 24.2768C10.3161 24.2966 10.2968 24.3165 10.2968 24.3165C10.142 24.6548 10.2581 25.0329 10.5484 25.1722C10.6257 25.2119 10.7032 25.2319 10.7807 25.2319C11.0129 25.2319 11.2452 25.0727 11.3613 24.8537C11.3613 24.8339 11.3807 24.814 11.3807 24.814C11.4 24.7742 11.4193 24.7345 11.4387 24.7145C11.4968 24.5752 11.5161 24.4757 11.5548 24.3563L11.6129 24.1772C11.7484 23.7793 11.8452 23.4609 12.0193 23.1823C12.0967 23.0629 12.1936 23.043 12.2709 23.0031C12.2903 23.0031 12.2903 23.0031 12.3096 22.9833L12.4452 22.7246C13.2968 23.0629 14.2259 23.2419 15.1548 23.2419C15.7161 23.2419 16.2968 23.1823 16.8388 23.043C17.1798 22.9646 17.5159 22.8649 17.8452 22.7445L17.9612 22.9634C17.9807 22.9634 17.9807 22.9634 18 22.9833C18.0968 23.0031 18.1741 23.043 18.2516 23.1624C18.4064 23.441 18.5225 23.7793 18.658 24.1574V24.1772L18.7161 24.3563C18.7548 24.4757 18.7741 24.5951 18.8322 24.7145C18.8516 24.7542 18.8709 24.7742 18.8903 24.814C18.8903 24.8339 18.9097 24.8537 18.9097 24.8537C19.0257 25.0925 19.258 25.2319 19.4903 25.2319C19.5677 25.2319 19.6452 25.2119 19.7225 25.1722C19.858 25.0927 19.9741 24.9731 20.0129 24.814C20.0516 24.6548 20.0516 24.4757 19.9743 24.3165C19.9743 24.2966 19.9548 24.2966 19.9548 24.2768C19.9355 24.237 19.9161 24.1972 19.8968 24.1772C19.8387 24.0578 19.7613 23.9583 19.6839 23.8588C19.6452 23.7992 19.6065 23.7594 19.5679 23.6998V23.6798C19.3548 23.3415 19.1612 23.043 19.0645 22.7445C19.0259 22.6052 19.0645 22.5257 19.0839 22.4262C19.0839 22.4063 19.1032 22.4063 19.1032 22.3864L19.0064 22.1476C20.0323 21.5307 20.9032 20.6551 21.5613 19.5806C21.9097 19.0234 22.1807 18.4065 22.3741 17.7897L22.6064 17.8294C22.6259 17.8294 22.6259 17.8095 22.6451 17.8095C22.7225 17.7698 22.7807 17.7101 22.8968 17.7101H22.9355C23.2452 17.7499 23.5741 17.8692 23.942 18.0086H23.9613C24.0193 18.0284 24.0773 18.0682 24.1355 18.0881C24.2516 18.1478 24.3484 18.1876 24.4839 18.2275C24.5225 18.2275 24.5612 18.2474 24.6 18.2474C24.6193 18.2474 24.6387 18.2474 24.658 18.2672C24.7161 18.2871 24.7548 18.2871 24.8129 18.2871C25.1032 18.2871 25.3548 18.0882 25.4323 17.8295C25.4323 17.5907 25.2193 17.2723 24.8709 17.1729V17.1728ZM15.9096 16.1977L15.058 16.6157L14.2064 16.1977L13.9936 15.2625L14.5741 14.5064H15.5225L16.1032 15.2625L15.9097 16.1977H15.9096ZM20.9613 14.1283C21.1115 14.7863 21.1572 15.465 21.0968 16.138L18.1355 15.2625C17.8645 15.183 17.7097 14.9043 17.7677 14.6258C17.7871 14.5462 17.8259 14.4665 17.8839 14.4069L20.2259 12.2378C20.5548 12.7951 20.8064 13.4319 20.9613 14.1283ZM19.2968 11.044L16.7613 12.8946C16.5484 13.0339 16.258 12.994 16.0839 12.7752C16.0259 12.7154 16.0065 12.6358 15.9871 12.5563L15.8129 9.31266C17.1311 9.46871 18.359 10.0789 19.2968 11.044ZM13.6839 9.41206C13.8968 9.3723 14.0903 9.33254 14.3032 9.29278L14.1291 12.4765C14.1097 12.7551 13.8968 12.9939 13.6064 12.9939C13.5291 12.9939 13.4323 12.974 13.3741 12.9342L10.8 11.044C11.5936 10.2281 12.5807 9.67073 13.6839 9.41206ZM9.87094 12.2377L12.1741 14.347C12.3871 14.5262 12.4064 14.8643 12.2323 15.0833C12.1741 15.1628 12.0968 15.2225 12 15.2425L9 16.138C8.88387 14.7848 9.17414 13.4118 9.87094 12.2377ZM9.34828 17.6304L12.4259 17.093C12.6775 17.0731 12.9097 17.2523 12.9677 17.511C12.9871 17.6303 12.9871 17.7299 12.9484 17.8294L11.7677 20.7545C10.6839 20.0381 9.81281 18.9436 9.34828 17.6304ZM16.4129 21.5903C15.9677 21.6898 15.5225 21.7494 15.058 21.7494C14.3807 21.7494 13.7225 21.6301 13.1033 21.4311L14.6323 18.5856C14.7871 18.4064 15.0387 18.3269 15.2516 18.4463C15.342 18.5032 15.4208 18.5775 15.4839 18.6651L16.9741 21.4311C16.8 21.4907 16.6064 21.5306 16.4128 21.5903H16.4129ZM20.1871 18.8243C19.7032 19.6203 19.0644 20.257 18.3291 20.7545L17.1097 17.7497C17.0516 17.511 17.1484 17.2523 17.3807 17.1328C17.458 17.093 17.5548 17.0731 17.6516 17.0731L20.7484 17.6105C20.6323 18.0482 20.4387 18.4463 20.1871 18.8243Z" fill="white"/>
</g>
<defs>
<clipPath id="clip0_3_96">
<rect width="30" height="30" fill="white"/>
</clipPath>
</defs>
</svg>
