<svg width="30" height="36" viewBox="0 0 30 36" fill="none" xmlns="http://www.w3.org/2000/svg">
<g clip-path="url(#clip0_4_88)">
<path d="M16.4389 25.6554C16.4386 25.651 16.437 25.6469 16.4365 25.6426C16.4347 25.6241 16.4305 25.606 16.424 25.5887C16.42 25.5781 16.4151 25.5679 16.4093 25.5582C16.406 25.5523 16.4029 25.5465 16.399 25.5411C16.3919 25.5313 16.384 25.5221 16.3753 25.5137C16.3712 25.5096 16.3676 25.505 16.3632 25.5011L16.3599 25.4976L14.6594 24.1097L16.223 23.0562C16.2855 23.014 16.3213 22.943 16.3179 22.8684L16.3021 22.4975L18.3754 24.08L18.4157 28.8856L16.5084 27.2799L16.4389 25.6554ZM8.09159 20.2703L9.05312 26.8413L4.49617 22.5483L3.17663 16.1754L8.09159 20.2703ZM15.882 22.766L9.51988 27.0521L8.52765 20.2716L15.6039 16.2439L15.882 22.766ZM15.0638 3.61154L15.4422 12.4585L7.95531 16.3544L6.56687 6.8765L15.0638 3.61154ZM6.12941 6.86701L7.49452 16.1853L2.34683 12.1734L0.527376 3.38373L6.12952 6.86713L6.12941 6.86701ZM6.20886 30.8172L5.2362 26.1174L9.57191 30.3815L10.2664 35.1238L6.20886 30.8172ZM16.2352 30.9882L10.7379 35.3675L10.0069 30.3774L16.025 26.0717L16.2352 30.9882ZM23.1361 25.4862L18.8471 28.9072L18.807 24.083L23.4222 20.7819L23.1361 25.4862ZM23.7348 22.7466L23.8801 20.3566C23.8801 20.3539 23.8794 20.3514 23.8794 20.3487C23.8794 20.3456 23.8805 20.3426 23.8804 20.3394C23.8803 20.33 23.8778 20.3208 23.8764 20.3116C23.8752 20.3049 23.8752 20.2982 23.8736 20.2917C23.8694 20.275 23.8633 20.2589 23.8553 20.2436C23.8546 20.2424 23.8544 20.2409 23.8537 20.2396C23.8443 20.223 23.8329 20.2078 23.8196 20.1942C23.8169 20.1913 23.8136 20.1892 23.8108 20.1867C23.8021 20.1785 23.7937 20.1701 23.7836 20.1632L20.8943 18.2552L20.9364 16.1613L25.4833 18.9946L25.0778 23.6813L23.7348 22.7466ZM25.5184 23.5899L25.9157 18.9991L29.5043 16.4308L28.9012 20.8935L25.5184 23.5899ZM30 15.9521C29.9998 15.948 29.9983 15.9442 29.9977 15.9401C29.9967 15.9325 29.9953 15.9249 29.9935 15.9174C29.9892 15.8985 29.9825 15.8803 29.9735 15.8631C29.9674 15.852 29.9603 15.8414 29.9523 15.8315C29.9481 15.8262 29.9441 15.8208 29.9394 15.8159C29.9294 15.8057 29.9183 15.7965 29.9063 15.7886C29.9025 15.786 29.8998 15.7824 29.8957 15.7801C29.895 15.7795 29.8939 15.7794 29.8929 15.7788C29.8916 15.7781 29.8906 15.7769 29.8893 15.7762L24.978 13.0547C24.9446 13.0363 24.907 13.0271 24.8689 13.028C24.8308 13.0288 24.7936 13.0398 24.7612 13.0598L20.6158 15.594C20.6091 15.5979 20.6038 15.6037 20.5977 15.6084C20.5903 15.614 20.5827 15.6192 20.5762 15.6257C20.5691 15.6326 20.5637 15.6406 20.5579 15.6485C20.5527 15.6553 20.5469 15.6616 20.5426 15.669C20.5373 15.678 20.5339 15.6879 20.5298 15.6977C20.5269 15.7051 20.5231 15.7117 20.521 15.7196C20.518 15.7301 20.5172 15.7412 20.5159 15.7522C20.5151 15.7592 20.5129 15.766 20.5126 15.7733L20.4686 17.9739L18.7823 16.8603C18.7481 16.8376 18.7081 16.8251 18.6671 16.8243C18.6261 16.8236 18.5857 16.8345 18.5507 16.856L16.1247 18.3391L16.0196 15.8726C16.0193 15.8675 16.0175 15.8628 16.017 15.8576C16.0158 15.8469 16.0139 15.8362 16.0114 15.8256C16.0093 15.8179 16.0061 15.8106 16.0032 15.8031C15.9997 15.794 15.9957 15.785 15.991 15.7764C15.9866 15.7688 15.9815 15.762 15.9763 15.755C15.971 15.7474 15.9652 15.7403 15.959 15.7335C15.9524 15.7269 15.9453 15.7208 15.9379 15.7151C15.9332 15.7114 15.9294 15.7067 15.9244 15.7032L13.3996 14.0074L15.7629 12.7776C15.7992 12.7585 15.8294 12.7296 15.8498 12.6941C15.8703 12.6585 15.8803 12.6179 15.8786 12.577L15.4817 3.29314C15.4812 3.28178 15.4785 3.27088 15.4763 3.25986C15.4753 3.25518 15.4751 3.25049 15.4739 3.24603C15.4691 3.22752 15.4617 3.20977 15.4519 3.1933C15.4501 3.19025 15.4477 3.18779 15.4458 3.18498C15.4373 3.17177 15.4274 3.15954 15.4162 3.14853C15.4121 3.14455 15.4076 3.14115 15.4032 3.13752C15.3969 3.13236 15.3914 3.1265 15.3848 3.12205C15.3795 3.11853 15.3735 3.11666 15.368 3.11361C15.3652 3.11209 15.3631 3.10975 15.3601 3.10834L8.99253 0.0356827C8.94334 0.0117791 8.88687 0.00758673 8.83468 0.023964L0.149915 2.72912L0.148158 2.73006C0.144642 2.73111 0.141595 2.73357 0.13808 2.73475C0.121933 2.74052 0.106547 2.74823 0.0922592 2.75771L0.0909702 2.7583C0.0861655 2.7617 0.082767 2.7665 0.0784311 2.77025C0.0671132 2.7789 0.0567077 2.78867 0.0473764 2.79943C0.0409311 2.8074 0.0365952 2.81654 0.0313217 2.82521C0.0260483 2.834 0.0201889 2.84209 0.0160874 2.85146C0.0113999 2.86271 0.00905611 2.87467 0.00647798 2.88662C0.00472017 2.89389 0.00155611 2.90045 0.000501419 2.90771C0.000384231 2.90889 0.000735794 2.90994 0.000501419 2.911C-0.000670456 2.92189 0.000501419 2.93279 0.00108736 2.94381C0.00143892 2.954 0.000970169 2.96408 0.00272798 2.97392C0.00307954 2.97557 0.00272798 2.97709 0.00307954 2.97861L1.94089 12.3383C1.95144 12.3883 1.97874 12.4329 2.01941 12.4645L4.64956 14.5144L2.74808 15.4198C2.74456 15.4215 2.74199 15.424 2.7387 15.4257C2.73577 15.4274 2.73261 15.4278 2.7298 15.4294C2.72558 15.432 2.72277 15.4358 2.7189 15.4386C2.70807 15.4461 2.69795 15.4545 2.68867 15.4639C2.68339 15.4692 2.67812 15.4743 2.67343 15.4801C2.66442 15.4916 2.65657 15.5039 2.64999 15.517C2.64765 15.5217 2.64449 15.5261 2.64238 15.531C2.63461 15.5491 2.62937 15.5681 2.62679 15.5875V15.5899C2.62644 15.5929 2.62702 15.596 2.62679 15.599C2.6255 15.6166 2.62632 15.6342 2.62937 15.6514C2.62972 15.6537 2.62925 15.656 2.62972 15.6582L4.08753 22.7022C4.09656 22.7458 4.11859 22.7852 4.15081 22.8155L5.98152 24.5398L4.76839 25.2819C4.75295 25.2915 4.73878 25.303 4.7262 25.3162C4.72269 25.3196 4.72035 25.3235 4.7173 25.3271C4.70675 25.3395 4.69784 25.3528 4.69034 25.3672C4.67803 25.3901 4.66993 25.415 4.66644 25.4408C4.66409 25.4615 4.66585 25.482 4.66937 25.5022C4.66984 25.5044 4.66925 25.5066 4.66972 25.509L5.79917 30.9645C5.80726 31.0032 5.82589 31.0392 5.85343 31.0683L10.4216 35.9181C10.4285 35.9254 10.4365 35.931 10.4441 35.9374C10.4469 35.9396 10.4493 35.9421 10.4522 35.9443C10.4665 35.9546 10.4815 35.963 10.4977 35.9696C10.4984 35.9699 10.4989 35.9705 10.4998 35.9708C10.501 35.9713 10.5026 35.9711 10.504 35.9716C10.528 35.9805 10.5532 35.9859 10.5789 35.9859C10.6054 35.9855 10.6316 35.9802 10.6561 35.9702C10.6615 35.9681 10.6673 35.967 10.6725 35.9643C10.6814 35.9601 10.688 35.9533 10.6959 35.9479C10.7015 35.9444 10.7079 35.9426 10.7132 35.9384L16.5896 31.2568C16.6435 31.2136 16.6735 31.1477 16.6707 31.0791L16.5333 27.8647L18.4966 29.517C18.5 29.5199 18.5044 29.521 18.508 29.5237C18.5192 29.5319 18.5298 29.5406 18.5425 29.5467C18.5467 29.5485 18.551 29.5494 18.5553 29.5511C18.5607 29.5532 18.5658 29.5549 18.5712 29.5565C18.5923 29.5632 18.6136 29.5678 18.6353 29.5678C18.6564 29.5678 18.6773 29.5634 18.698 29.5571C18.7027 29.5556 18.7074 29.554 18.7123 29.5522C18.7172 29.5503 18.7223 29.5494 18.7271 29.5471C18.738 29.542 18.7468 29.5345 18.7564 29.5278C18.7606 29.5249 18.7655 29.5237 18.7695 29.5205L23.4801 25.764C23.528 25.7253 23.5571 25.669 23.5608 25.6079L23.7041 23.2506L25.1373 24.2483C25.1404 24.2503 25.1438 24.251 25.1467 24.2528C25.1509 24.2554 25.1541 24.2592 25.1584 24.2615C25.1669 24.266 25.1759 24.2682 25.1846 24.2715C25.1904 24.2737 25.1962 24.2764 25.2024 24.2781C25.2214 24.2834 25.2408 24.2868 25.2603 24.2868C25.2814 24.2868 25.3025 24.2826 25.3232 24.2763C25.3279 24.2749 25.3326 24.2733 25.3373 24.2716C25.3419 24.2697 25.3471 24.2688 25.3519 24.2667C25.3636 24.261 25.3737 24.2532 25.384 24.2458C25.3874 24.2435 25.3915 24.2425 25.3948 24.2399L29.2374 21.1774C29.2809 21.1426 29.3093 21.0925 29.3168 21.0373L29.9985 15.9935C29.9992 15.9881 29.9979 15.9829 29.9983 15.9775C29.9987 15.969 30.0005 15.9608 30 15.9521Z" fill="black"/>
<path d="M7.82417 16.606L6.34292 6.78214L0.342102 3.08228L2.12968 12.3192L7.82417 16.606ZM9.22855 27.1698L8.28366 20.2038L2.94659 15.7895L4.32554 22.6789L9.22855 27.1698ZM4.98952 25.6133L5.93441 30.844L10.4799 35.5647L9.84144 30.2317L4.98952 25.6133ZM18.5493 24.0056L16.2128 22.2706C16.2128 22.2706 16.1795 22.8919 16.1171 22.9341L14.4125 24.1334L16.2766 25.6643L16.3852 27.4058L18.6004 29.2111L18.5494 24.0057L18.5493 24.0056ZM25.6102 18.9152L25.1888 23.8207L23.6183 22.7873C23.6183 22.7873 23.7914 20.3071 23.7906 20.3059C23.7816 20.2892 20.7646 18.2645 20.7646 18.2645L20.8603 16.0063L25.6102 18.9152Z" fill="#004711"/>
<path d="M15.6639 12.5489L15.2298 3.414L6.34316 6.78214L7.82417 16.606L15.6639 12.5489ZM16.0725 22.9085L15.715 15.9425L8.2839 20.2036L9.38195 27.3483L16.0725 22.9085ZM16.2002 25.7408L9.84156 30.2317L10.6333 35.7176L16.43 31.0993L16.2002 25.7408ZM18.6517 23.9802L18.7537 29.2877L23.3503 25.5623L23.58 20.5099L18.6517 23.9802ZM29.6004 16.2933L29.0003 20.9501L25.4061 23.8335L25.8338 18.9408L29.6004 16.2932V16.2933Z" fill="#00B159"/>
</g>
<defs>
<clipPath id="clip0_4_88">
<rect width="30.0001" height="35.9717" fill="white" transform="translate(0 0.0141296)"/>
</clipPath>
</defs>
</svg>
