<svg width="30" height="30" viewBox="0 0 30 30" fill="none" xmlns="http://www.w3.org/2000/svg">
<g clip-path="url(#clip0_4_241)">
<path d="M8.92441 18.3574L9.83613 21.3953C10.041 22.085 10.1264 22.5665 10.0922 22.841C10.5908 21.4696 10.9392 19.975 11.1374 18.3574H12.2337C11.7623 20.9909 11.1406 22.9046 10.3689 24.0984C9.76758 25.0184 9.10887 25.4783 8.39156 25.4783C8.20031 25.4783 7.96453 25.419 7.68475 25.3012V24.6664C7.82144 24.6869 7.98182 24.698 8.16627 24.698C8.5009 24.698 8.7706 24.6027 8.9758 24.4126C9.22148 24.181 9.34447 23.9207 9.34447 23.6322C9.34447 23.4352 9.24855 23.0309 9.0576 22.4193L7.78728 18.3574H8.92441ZM1.94666 16.4902L3.61658 21.7225H3.62689L5.30707 16.4902H6.6798C6.98039 19.0851 7.15793 21.4593 7.21242 23.6113H6.05508C6.01435 21.5996 5.90156 19.7079 5.71711 17.9359H5.70703L3.94465 23.6113H3.06328L1.31156 17.9359H1.30125C1.17129 19.6377 1.08949 21.5294 1.05539 23.6113H0C0.0682031 21.0793 0.238887 18.7058 0.512051 16.4902H1.94666Z" fill="#00758F"/>
<path d="M20.6542 16.3846C22.4505 16.3846 23.3487 17.5631 23.3487 19.919C23.3487 21.1992 23.0785 22.1662 22.5388 22.8195C22.4416 22.9389 22.334 23.042 22.2208 23.1376L23.492 23.783L23.4908 23.783L23.0395 24.5834L21.384 23.5915C21.1096 23.6749 20.8077 23.7166 20.4787 23.7166C19.5967 23.7166 18.9378 23.4526 18.5023 22.9254C18.0241 22.3421 17.7852 21.4238 17.7852 20.1721C17.7852 18.8991 18.0548 17.9357 18.5947 17.2816C19.0864 16.6832 19.773 16.3846 20.6542 16.3846ZM15.1534 16.3949C15.7954 16.3949 16.3792 16.5713 16.905 16.9229L16.6379 17.5341C16.188 17.3377 15.7444 17.2391 15.3069 17.2391C14.9519 17.2391 14.6784 17.3268 14.4878 17.5033C14.296 17.6783 14.1774 17.9035 14.1774 18.178C14.1774 18.5998 14.4701 18.9656 15.0104 19.2746C15.1874 19.374 15.3638 19.4745 15.5395 19.5761L15.5798 19.5994L15.6 19.6111L15.6404 19.6344L15.6606 19.646L15.7009 19.6694C16.1099 19.9062 16.4947 20.1322 16.4947 20.1322C17.0349 20.526 17.3042 20.9459 17.3042 21.6374C17.3042 22.2414 17.0887 22.7371 16.6591 23.1251C16.2292 23.5113 15.6517 23.7049 14.9284 23.7049C14.2519 23.7049 13.5963 23.482 12.9613 23.04L13.2583 22.4283C13.8048 22.7096 14.2994 22.8501 14.7435 22.8501C15.1599 22.8501 15.486 22.7546 15.7218 22.566C15.9572 22.376 16.0982 22.1111 16.0982 21.7752C16.0982 21.3523 15.8118 20.9909 15.2864 20.6877C15.1219 20.5944 14.958 20.5002 14.7945 20.4051L14.7542 20.3817C14.6803 20.3387 14.6058 20.2953 14.5329 20.2528L14.4933 20.2297C14.1385 20.0224 13.8318 19.8414 13.8318 19.8414C13.3066 19.4468 13.0432 19.0235 13.0432 18.326C13.0432 17.7491 13.2396 17.2829 13.6318 16.9281C14.025 16.5726 14.5322 16.3949 15.1534 16.3949ZM25.4597 16.4902V22.7353H27.6416V23.6113H24.3531V16.4902H25.4597ZM28.8541 22.738V22.8861H28.6142V23.6105H28.4308V22.8861H28.1816V22.738H28.8541H28.8541ZM29.297 22.738L29.5274 23.3328L29.739 22.738H29.9989V23.6105H29.8261V22.9465L29.5853 23.6105H29.4606L29.2194 22.9465H29.2101V23.6105H29.0466V22.738H29.2971H29.297ZM20.5412 17.2603C19.4826 17.2603 18.9531 18.1575 18.9531 19.9506C18.9531 20.9777 19.0934 21.7225 19.3735 22.1867C19.633 22.6164 20.0393 22.8308 20.5926 22.8308C21.6512 22.8308 22.1807 21.9266 22.1807 20.1192C22.1807 19.1064 22.0404 18.368 21.7606 17.9035C21.5008 17.4749 21.0947 17.2603 20.5413 17.2603H20.5412Z" fill="#F29111"/>
<path d="M17.7667 4.94124C18.1178 4.05515 19.3457 4.72619 19.8221 5.03571C19.9389 5.11316 20.0729 5.27676 20.2068 5.33724C20.4156 5.34566 20.6243 5.36245 20.8336 5.37141C21.226 5.46612 21.5937 5.54351 21.9029 5.72438C23.3401 6.59357 24.2757 7.4793 25.1367 8.94232C25.3207 9.2522 25.4126 9.58754 25.5629 9.92288C25.7715 10.4227 26.0059 10.9474 26.248 11.4201C26.3564 11.6442 26.4402 11.8933 26.5908 12.0826C26.6495 12.1691 26.8165 12.1946 26.9163 12.2463C27.1921 12.3929 27.5263 12.5043 27.7858 12.6763C28.2703 12.9866 28.7388 13.3563 29.1646 13.7348C29.3234 13.8809 29.4315 14.0877 29.5827 14.2422V14.3202C29.4485 14.3625 29.3147 14.4058 29.1809 14.4405C28.8884 14.5177 28.6294 14.5002 28.3457 14.5774C28.1703 14.6296 27.9527 14.6985 27.7688 14.7161L27.7858 14.7336C27.894 15.051 28.4792 15.3092 28.7468 15.499C29.0719 15.7399 29.3732 16.0321 29.6156 16.3677C29.6993 16.4533 29.7831 16.5313 29.8664 16.6166C29.9246 16.7032 29.941 16.8151 30 16.8922V16.9183C29.9347 16.8947 29.8878 16.8496 29.8433 16.8024L29.8168 16.7739C29.7902 16.7457 29.7634 16.7179 29.7329 16.6949C29.5485 16.5656 29.3653 16.4108 29.1809 16.2905C28.8637 16.0839 28.4959 15.964 28.1703 15.7565C27.9862 15.6361 27.8108 15.499 27.6353 15.3612C27.4762 15.2405 27.301 15.0085 27.201 14.8365C27.1421 14.7414 27.1341 14.6296 27.0668 14.5609C27.0788 14.446 27.1813 14.4119 27.2847 14.3838L27.3085 14.3774C27.3442 14.3679 27.3791 14.3584 27.4096 14.3458C27.844 14.1564 28.3619 14.0877 29.0307 14.1049C29.0055 13.9324 28.5876 13.7176 28.4542 13.6143C28.1864 13.4161 27.9029 13.2093 27.6188 13.0289C27.4683 12.9344 27.2089 12.8655 27.0421 12.7883C26.8165 12.6936 26.315 12.5989 26.1899 12.4185C25.9775 12.1341 25.825 11.7949 25.6768 11.4523L25.6365 11.3588C25.6231 11.3277 25.6096 11.2965 25.5961 11.2654C25.421 10.8528 25.2035 10.4226 25.028 10.0001C24.9363 9.79405 24.8941 9.61317 24.7936 9.41551C24.1839 8.20256 23.2813 7.18704 22.1871 6.47286C21.8275 6.24048 21.4266 6.02542 20.9839 5.87927C20.7331 5.80146 20.432 5.84449 20.1648 5.7848H19.9889C19.8388 5.74135 19.7134 5.57792 19.5963 5.49176C19.3376 5.31136 19.0785 5.19024 18.7692 5.06153C18.6608 5.0099 18.3512 4.88968 18.2432 4.98433C18.1762 5.0016 18.1423 5.02753 18.1259 5.09649C18.0593 5.19938 18.1178 5.35439 18.1593 5.44928C18.2848 5.72426 18.4601 5.88769 18.6192 6.12007C18.7608 6.32616 18.9366 6.55855 19.037 6.78263C19.2535 7.2643 19.3544 7.79797 19.5551 8.27958C19.6295 8.4607 19.7472 8.66679 19.8555 8.83016C19.9474 8.95983 20.1143 9.05357 20.1648 9.21772C20.2655 9.38982 20.0141 9.95766 19.9559 10.138C19.7382 10.8436 19.7804 11.8245 20.0311 12.4361L20.0444 12.4684L20.0578 12.5011C20.1493 12.7251 20.2473 12.9663 20.4906 13.029C20.5074 13.0119 20.4906 13.0208 20.5239 13.0119C20.5827 12.5384 20.5993 12.0825 20.7582 11.7121C20.8501 11.4805 21.0334 11.3168 21.1591 11.1277C21.2429 11.1792 21.2429 11.3345 21.2928 11.4373C21.4015 11.7038 21.5183 11.9961 21.6524 12.2634C21.9275 12.814 22.2371 13.3478 22.5879 13.8294C22.7054 14.0015 22.8721 14.1908 23.0225 14.3458C23.0894 14.4057 23.1644 14.4404 23.2148 14.5176H23.2312V14.5436C22.9805 14.4487 22.8216 14.1824 22.6217 14.0269C22.2453 13.7347 21.7945 13.2958 21.5351 12.8746C21.4266 12.6328 21.3093 12.4011 21.1923 12.1606V12.1432C21.1423 12.2119 21.1591 12.2801 21.1341 12.3841C21.0255 12.814 21.1091 13.3045 20.7331 13.4591C20.3069 13.6402 19.989 13.1669 19.8555 12.9518C19.4292 12.2378 19.3124 11.0332 19.6131 10.0609C19.6799 9.84568 19.689 9.58754 19.8056 9.41569C19.7804 9.26033 19.6638 9.21784 19.5963 9.12265C19.4794 8.95995 19.3792 8.77041 19.2876 8.58971C19.1118 8.23674 18.9866 7.815 18.8531 7.43645C18.7943 7.28187 18.7775 7.12669 18.719 6.98035C18.6192 6.75699 18.4351 6.53291 18.2931 6.33531C18.1009 6.0513 17.541 5.50084 17.7667 4.94124ZM20.5072 6.62696C20.5295 6.64995 20.5565 6.67004 20.5844 6.68984L20.618 6.71355C20.6628 6.74544 20.7063 6.77902 20.7329 6.82475C20.7751 6.88528 20.7829 6.94503 20.8334 7.00568C20.8334 7.21249 20.7751 7.34999 20.6572 7.43567C20.6572 7.43567 20.6492 7.4447 20.6409 7.45312C20.5741 7.31527 20.5156 7.17814 20.4483 7.0404C20.3655 6.92018 20.2484 6.82481 20.1809 6.68743H20.1646V6.67016C20.2655 6.64459 20.3655 6.62696 20.5072 6.62696Z" fill="#00758F"/>
</g>
<defs>
<clipPath id="clip0_4_241">
<rect width="30" height="21" fill="white" transform="translate(0 4.5)"/>
</clipPath>
</defs>
</svg>
