<svg width="30" height="30" viewBox="0 0 30 30" fill="none" xmlns="http://www.w3.org/2000/svg">
<g clip-path="url(#clip0_34_140)">
<mask id="mask0_34_140" style="mask-type:luminance" maskUnits="userSpaceOnUse" x="3" y="3" width="25" height="24">
<path d="M27.0001 3H3.00012V27H27.0001V3Z" fill="white"/>
</mask>
<g mask="url(#mask0_34_140)">
<path d="M14.2142 3.00646C14.1626 3.01115 13.9983 3.02757 13.8505 3.0393C10.4418 3.34663 7.2488 5.18593 5.22651 8.01291C4.10041 9.58476 3.38018 11.3677 3.10804 13.2563C3.01185 13.9156 3.00012 14.1103 3.00012 15.0041C3.00012 15.898 3.01185 16.0927 3.10804 16.7519C3.76024 21.2587 6.96728 25.0452 11.3168 26.4481C12.0957 26.6991 12.9168 26.8704 13.8505 26.9736C14.2142 27.0135 15.786 27.0135 16.1497 26.9736C17.7614 26.7953 19.1268 26.3965 20.4734 25.7091C20.6799 25.6035 20.7197 25.5754 20.6916 25.5519C20.6728 25.5378 19.7931 24.3578 18.7373 22.9314L16.8183 20.339L14.4136 16.7801C13.0904 14.8235 12.0019 13.2235 11.9925 13.2235C11.9831 13.2211 11.9737 14.8024 11.969 16.7331C11.962 20.1138 11.9597 20.2499 11.9174 20.3296C11.8564 20.4446 11.8095 20.4915 11.711 20.5431C11.6359 20.5807 11.5702 20.5877 11.216 20.5877H10.8101L10.7022 20.5197C10.6318 20.4751 10.5802 20.4164 10.545 20.3484L10.4957 20.2428L10.5004 15.539L10.5075 10.8328L10.5802 10.7414C10.6177 10.6921 10.6975 10.6287 10.7538 10.5982C10.85 10.5513 10.8875 10.5466 11.2934 10.5466C11.772 10.5466 11.8517 10.5654 11.9761 10.7015C12.0113 10.739 13.3133 12.7003 14.8711 15.0628C16.4288 17.4252 18.559 20.651 19.6054 22.2346L21.5057 25.1132L21.6019 25.0499C22.4535 24.4962 23.3544 23.7079 24.0675 22.8868C25.5854 21.1437 26.5637 19.0182 26.8922 16.7519C26.9884 16.0927 27.0001 15.898 27.0001 15.0041C27.0001 14.1103 26.9884 13.9156 26.8922 13.2563C26.24 8.74957 23.0329 4.96306 18.6834 3.56012C17.9162 3.31144 17.0998 3.14018 16.1849 3.03696C15.9596 3.0135 14.4089 2.98769 14.2142 3.00646ZM19.1268 10.2651C19.2394 10.3214 19.3309 10.4293 19.3637 10.5419C19.3825 10.6029 19.3872 11.9073 19.3825 14.8469L19.3755 19.0651L18.6318 17.9249L17.8857 16.7848V13.7185C17.8857 11.7361 17.8951 10.6217 17.9092 10.5677C17.9467 10.4364 18.0288 10.3332 18.1414 10.2722C18.2376 10.2229 18.2728 10.2182 18.6412 10.2182C18.9884 10.2182 19.0494 10.2229 19.1268 10.2651Z" fill="black"/>
</g>
</g>
<defs>
<clipPath id="clip0_34_140">
<rect width="24" height="24" fill="white" transform="translate(3.00012 3)"/>
</clipPath>
</defs>
</svg>
