<svg width="30" height="36" viewBox="0 0 30 36" fill="none" xmlns="http://www.w3.org/2000/svg">
<g clip-path="url(#clip0_4_200)">
<path d="M0.240703 26.9921C0.395391 27.2824 0.618867 27.5003 0.894023 27.6636L14.1318 35.7218C14.682 36.0666 15.3524 36.0666 15.8854 35.7218L29.1232 27.6636C29.6734 27.337 30 26.7198 30 26.0483V9.93192C30 9.26042 29.6734 8.64334 29.1232 8.31675L15.8854 0.258436C15.3353 -0.086471 14.6647 -0.086471 14.1318 0.258436L0.894141 8.31675C0.326602 8.64334 0 9.26042 0 9.93192V26.0664C0 26.3932 0.068789 26.7017 0.240703 26.9921Z" fill="#009639"/>
<path d="M10.7621 24.1428C10.7631 24.379 10.7197 24.6131 10.6345 24.8315C10.5493 25.05 10.424 25.2485 10.2657 25.4155C10.1075 25.5826 9.9195 25.7149 9.71257 25.8048C9.50564 25.8948 9.28389 25.9405 9.06011 25.9396C8.83635 25.9405 8.61461 25.8947 8.40769 25.8048C8.20078 25.7148 8.01279 25.5825 7.85456 25.4155C7.69634 25.2484 7.57101 25.05 7.48582 24.8315C7.40063 24.6131 7.35725 24.379 7.3582 24.1428V11.8196C7.3582 10.8577 8.16621 10.0773 9.28359 10.0773C10.0917 10.0773 11.0373 10.4221 11.6046 11.1662L12.1202 11.8196L19.2378 20.8033V11.8559C19.2369 11.6196 19.2803 11.3855 19.3655 11.1671C19.4507 10.9487 19.576 10.7502 19.7343 10.5831C19.8925 10.4161 20.0805 10.2838 20.2874 10.1938C20.4943 10.1039 20.7161 10.0581 20.9399 10.0591C21.1636 10.0581 21.3854 10.1039 21.5923 10.1939C21.7992 10.2838 21.9872 10.4161 22.1454 10.5832C22.3037 10.7502 22.429 10.9487 22.5142 11.1671C22.5994 11.3856 22.6427 11.6197 22.6418 11.8559V24.1791C22.6418 25.141 21.8338 25.9214 20.7164 25.9214C19.9083 25.9214 18.9627 25.5766 18.3954 24.8325L10.7621 15.2134V24.1428Z" fill="white"/>
</g>
<defs>
<clipPath id="clip0_4_200">
<rect width="30" height="36" fill="white"/>
</clipPath>
</defs>
</svg>
