<svg width="30" height="30" viewBox="0 0 30 30" fill="none" xmlns="http://www.w3.org/2000/svg">
<g clip-path="url(#clip0_3_94)">
<path d="M15.0001 0.0778503C6.71613 0.0778503 0 6.76703 0 15.0191C0 23.2709 6.71613 29.9605 15.0001 29.9605C23.2841 29.9605 30 23.2709 30 15.0191C30 6.76692 23.2839 0.0778503 15.0001 0.0778503ZM15.0001 28.0421C12.6432 28.0421 10.7323 26.4738 10.7323 24.5396H19.268C19.268 26.4734 17.3571 28.0421 15.0001 28.0421ZM22.0493 23.3798H7.95023V20.8331H22.0495V23.3797H22.0493V23.3798ZM21.9987 19.5224H7.99043C7.94379 19.4689 7.89621 19.4162 7.85121 19.3619C6.40805 17.6163 6.06809 16.7051 5.73809 15.7764C5.73246 15.7458 7.48805 16.1336 8.73293 16.4126C8.73293 16.4126 9.37348 16.5602 10.31 16.7303C9.41086 15.6804 8.87684 14.3457 8.87684 12.9814C8.87684 9.98625 11.1831 7.36902 10.3511 5.25361C11.1608 5.31921 12.0268 6.9559 12.0854 9.51489C12.9463 8.32983 13.3065 6.16587 13.3065 4.8391C13.3065 3.46528 14.2153 1.86945 15.1243 1.81493C14.314 3.1452 15.3341 4.28555 16.2411 7.11454C16.5812 8.17715 16.5379 9.96548 16.8004 11.0995C16.8875 8.74411 17.2941 5.30731 18.7942 4.12085C18.1324 5.61501 18.8921 7.48482 19.4118 8.38365C20.2501 9.83392 20.7582 10.9326 20.7582 13.0107C20.7582 14.404 20.2418 15.7157 19.3707 16.7412C20.3612 16.556 21.0452 16.3891 21.0452 16.3891L24.262 15.764C24.2623 15.7638 23.7948 17.6785 21.9987 19.5224Z" fill="#DA4E31"/>
</g>
<defs>
<clipPath id="clip0_3_94">
<rect width="30" height="30" fill="white"/>
</clipPath>
</defs>
</svg>
