<svg width="30" height="30" viewBox="0 0 30 30" fill="none" xmlns="http://www.w3.org/2000/svg">
<g clip-path="url(#clip0_3_91)">
<path d="M0.754453 23.3257V22.7738H0.258281V23.3241H0V22.002H0.258281V22.5577H0.754453V22.002H1.0125V23.3257H0.754453ZM1.94555 23.3257H1.74398L1.7257 23.2563C1.6371 23.311 1.53497 23.3398 1.43086 23.3395C1.25039 23.3395 1.17281 23.2195 1.17281 23.0548C1.17281 22.8909 1.2607 22.7946 1.45945 22.7946H1.69734V22.6959C1.69734 22.5888 1.66617 22.5523 1.50891 22.5523C1.41698 22.553 1.32532 22.5625 1.23516 22.5804L1.20398 22.3983C1.31648 22.3673 1.43273 22.3516 1.54992 22.3516C1.86023 22.3516 1.95094 22.4588 1.95094 22.6959L1.94555 23.3257ZM1.68727 22.9671H1.51617C1.43648 22.9671 1.41352 22.987 1.41352 23.0604C1.41352 23.1335 1.43648 23.1565 1.51148 23.1565C1.5766 23.1558 1.64051 23.1388 1.69734 23.107L1.68727 22.9671ZM2.46187 23.3468C2.3463 23.3451 2.23159 23.3266 2.12133 23.292L2.15414 23.1098C2.25023 23.1363 2.34914 23.1509 2.44898 23.152C2.55797 23.152 2.57555 23.1281 2.57555 23.0548C2.57555 22.9826 2.57555 22.9669 2.40234 22.9303C2.16258 22.8727 2.14406 22.815 2.14406 22.6301C2.14406 22.4449 2.23195 22.3545 2.51414 22.3545C2.61281 22.3545 2.71172 22.3655 2.80781 22.3882L2.78508 22.5778C2.69555 22.562 2.60501 22.5525 2.51414 22.5495C2.40516 22.5495 2.38687 22.5734 2.38687 22.6327C2.38687 22.6931 2.38687 22.7161 2.5268 22.7473C2.80336 22.8176 2.82914 22.8544 2.82914 23.0503C2.82914 23.2453 2.76211 23.3442 2.46469 23.3442L2.46187 23.3468ZM3.59344 23.3257V22.6594C3.59344 22.6071 3.57047 22.5832 3.51375 22.5832C3.42305 22.5933 3.33516 22.6207 3.2557 22.6638V23.3257H2.99648V21.9837L3.2557 22.0202V22.4421C3.36863 22.3871 3.49181 22.3563 3.61734 22.3516C3.7793 22.3516 3.83883 22.4634 3.83883 22.6329V23.3257H3.59344ZM4.04836 22.2373V22.002H4.30664V22.2373H4.04836ZM4.04836 23.3257V22.3699H4.30664V23.3257H4.04836ZM4.4925 22.38C4.4925 22.1402 4.63711 22.002 4.97297 22.002C5.09671 22.0026 5.21996 22.0176 5.34023 22.0467L5.31211 22.26C5.20335 22.2354 5.09274 22.2198 4.98141 22.2134C4.80562 22.2134 4.74891 22.2729 4.74891 22.4112V22.9148C4.74891 23.0531 4.80562 23.1124 4.98141 23.1124C5.09228 23.1099 5.20278 23.0986 5.31187 23.0787L5.34023 23.292C5.22003 23.321 5.09687 23.336 4.9732 23.3367C4.63711 23.3367 4.4925 23.1984 4.4925 22.9587V22.38ZM5.88492 23.3468C5.54719 23.3468 5.45648 23.1675 5.45648 22.9716V22.7344C5.45648 22.5394 5.54719 22.3589 5.88492 22.3589C6.22383 22.3589 6.3143 22.5394 6.3143 22.7344V22.977C6.3143 23.1645 6.22383 23.3442 5.88492 23.3442V23.3468ZM5.88492 22.5649C5.7532 22.5649 5.70211 22.6226 5.70211 22.7297V22.9898C5.70211 23.097 5.7532 23.1546 5.88492 23.1546C6.01687 23.1546 6.06914 23.097 6.06914 22.9898V22.7297C6.06914 22.6118 6.01687 22.5548 5.88492 22.5548V22.5649ZM7.00922 22.5806C6.91981 22.6201 6.83354 22.6663 6.75117 22.7189V23.3341H6.49195V22.3699H6.71719V22.4745C6.79744 22.4215 6.88427 22.3793 6.97547 22.3488L7.00922 22.5806ZM8.00906 22.9955C8.01592 23.0404 8.0123 23.0864 7.99847 23.1297C7.98465 23.1731 7.961 23.2126 7.92938 23.2453C7.89789 23.2778 7.85924 23.3025 7.81651 23.3175C7.77379 23.3324 7.72817 23.3371 7.68328 23.3313C7.59651 23.3296 7.51007 23.3202 7.425 23.303V23.6939L7.16672 23.7305V22.3699H7.36266L7.38656 22.4505C7.47797 22.3856 7.58695 22.3507 7.69875 22.3516C7.8982 22.3516 8.00344 22.466 8.00344 22.6821L8.00906 22.9955ZM7.42031 23.1023C7.4918 23.118 7.56586 23.1263 7.63922 23.1281C7.72711 23.1281 7.76367 23.0869 7.76367 23.0009V22.6774C7.76367 22.5989 7.7325 22.5548 7.6418 22.5548C7.56089 22.5577 7.4834 22.5881 7.42219 22.6411L7.42031 23.1023ZM1.50609 25.3226H0V24.4153H4.03289V25.3226H2.5268V29.8573H1.50609V25.3226Z" fill="black"/>
<path d="M4.96311 29.1192C5.37242 29.1175 5.77914 29.0543 6.16968 28.9317L6.32436 29.6824C5.86038 29.8538 5.36984 29.9421 4.87522 29.9433C3.63468 29.9433 3.20624 29.362 3.20624 28.4079V27.3649C3.20624 26.5238 3.57796 25.8024 4.84124 25.8024C6.10452 25.8024 6.39139 26.5449 6.39139 27.4017V28.2513H4.19577V28.4545C4.19577 28.9315 4.36335 29.1192 4.96311 29.1192ZM4.18757 27.4439H5.44382V27.248C5.44382 26.8725 5.33014 26.6126 4.84405 26.6126C4.35889 26.6126 4.1878 26.8728 4.1878 27.2478L4.18757 27.4439ZM9.02975 26.7115C8.67058 26.878 8.325 27.0723 7.99616 27.2927V29.8573H6.99655V25.8776H7.83046L7.89561 26.3177C8.21559 26.0991 8.56315 25.9239 8.92921 25.7967L9.02975 26.7115ZM11.4422 26.7115C11.0831 26.8782 10.7375 27.0725 10.4086 27.2927V29.8573H9.40897V25.8776H10.2438L10.3078 26.3177C10.6279 26.0993 10.9754 25.9241 11.3414 25.7967L11.4422 26.7115ZM14.7445 29.8545H13.9352L13.8628 29.5936C13.5146 29.8226 13.107 29.9448 12.6902 29.9452C11.9695 29.9452 11.6566 29.4481 11.6566 28.7623C11.6566 27.9546 12.0054 27.6443 12.8065 27.6443H13.755V27.2278C13.755 26.7865 13.6331 26.6309 13.0031 26.6309C12.6351 26.6346 12.2691 26.6756 11.91 26.7527L11.7881 25.9945C12.2283 25.8719 12.6828 25.8088 13.1398 25.807C14.3801 25.807 14.7445 26.2472 14.7445 27.2452V29.8545ZM13.7578 28.3502H13.0289C12.7055 28.3502 12.615 28.4391 12.615 28.7412C12.615 29.0442 12.7029 29.1431 13.0134 29.1431C13.2746 29.1391 13.5306 29.0692 13.7576 28.9399L13.7578 28.3502ZM17.7823 24.971C17.5963 24.9304 17.4068 24.9083 17.2165 24.9052C16.8293 24.9052 16.7726 25.0772 16.7726 25.3793V25.8774H17.775L17.7183 26.6592H16.7695V29.8435H15.7828V26.6693H15.15V25.8874H15.78V25.3226C15.78 24.496 16.1599 24.0893 17.0362 24.0893C17.3226 24.0884 17.6093 24.1268 17.8856 24.2046L17.7823 24.971ZM19.7095 29.9377C18.3581 29.9377 17.9946 29.187 17.9946 28.3742V27.368C17.9946 26.5524 18.3581 25.8042 19.7095 25.8042C21.0607 25.8042 21.428 26.5549 21.428 27.368V28.3742C21.4251 29.1844 21.0607 29.9377 19.7095 29.9377ZM19.7095 26.6463C19.1932 26.6463 18.9816 26.8835 18.9816 27.3312V28.4023C18.9816 28.8511 19.1831 29.0881 19.7095 29.0881C20.2369 29.0881 20.4384 28.8511 20.4384 28.4025V27.3314C20.4384 26.8807 20.2341 26.6438 19.7095 26.6438V26.6463ZM23.9676 26.7115C23.6086 26.8782 23.263 27.0725 22.934 27.2927V29.8573H21.937V25.8776H22.7709L22.8361 26.3177C23.1561 26.0991 23.5036 25.9239 23.8697 25.7967L23.9676 26.7115ZM26.6803 29.8545V27.0785C26.6803 26.8681 26.5924 26.761 26.3653 26.761C26.0017 26.8023 25.6501 26.9165 25.3317 27.0968V29.8573H24.3494V25.8776H25.1018L25.2 26.2135C25.691 25.9654 26.2288 25.8234 26.7783 25.7967C26.9309 25.7827 27.0842 25.8159 27.2174 25.8919C27.3505 25.9679 27.4571 26.0831 27.5226 26.2217C28.0144 25.9675 28.5552 25.8225 29.1082 25.7967C29.7647 25.7967 30 26.2629 30 26.9724V29.8545H29.0133V27.0785C29.0133 26.8681 28.9251 26.761 28.698 26.761C28.3336 26.7985 27.9813 26.913 27.6644 27.0968V29.8573L26.6803 29.8545Z" fill="black"/>
<path fill-rule="evenodd" clip-rule="evenodd" d="M12.2662 3.61734L17.7337 6.80156V13.1707L12.2662 9.98554V3.61734Z" fill="#5C4EE5"/>
<path fill-rule="evenodd" clip-rule="evenodd" d="M18.3326 6.80156V13.1707L23.802 9.98554V3.61734L18.3326 6.80156Z" fill="#4040B2"/>
<path fill-rule="evenodd" clip-rule="evenodd" d="M6.20087 0.0623474V6.43125L11.6674 9.61547V3.24727L6.20087 0.0623474ZM12.2663 17.0508L17.7338 20.2359V13.8694L12.2663 10.6842V17.0508Z" fill="#5C4EE5"/>
</g>
<defs>
<clipPath id="clip0_3_91">
<rect width="30" height="30" fill="white"/>
</clipPath>
</defs>
</svg>
