<svg width="30" height="30" viewBox="0 0 30 30" fill="none" xmlns="http://www.w3.org/2000/svg">
<g clip-path="url(#clip0_3_89)">
<path d="M22.9688 0H7.03125C3.148 0 0 3.148 0 7.03125V22.9688C0 26.852 3.148 30 7.03125 30H22.9688C26.852 30 30 26.852 30 22.9688V7.03125C30 3.148 26.852 0 22.9688 0Z" fill="#0073AA"/>
<path d="M4.94696 14.9993C4.94696 18.9784 7.25942 22.4172 10.6126 24.0468L5.81731 10.9082C5.24248 12.1954 4.9459 13.5895 4.94696 14.9993ZM21.7861 14.492C21.7861 13.2497 21.3399 12.3893 20.9571 11.7196C20.4475 10.8915 19.9698 10.1903 19.9698 9.36223C19.9698 8.43809 20.6707 7.57794 21.6579 7.57794C21.7025 7.57794 21.7447 7.58344 21.7882 7.58591C19.9997 5.94739 17.6169 4.94696 14.9997 4.94696C11.4878 4.94696 8.3979 6.74883 6.60048 9.47813C6.83626 9.48516 7.05856 9.4902 7.24735 9.4902C8.29888 9.4902 9.92649 9.36247 9.92649 9.36247C10.4684 9.33059 10.5324 10.1265 9.99095 10.1906C9.99095 10.1906 9.44638 10.2547 8.8404 10.2865L12.5011 21.1753L14.7011 14.5773L13.1349 10.2861C12.5936 10.2544 12.0808 10.1903 12.0808 10.1903C11.539 10.1585 11.6025 9.33024 12.1443 9.36223C12.1443 9.36223 13.8043 9.48973 14.7921 9.48973C15.8435 9.48973 17.4713 9.36223 17.4713 9.36223C18.0136 9.33024 18.0772 10.1262 17.5357 10.1903C17.5357 10.1903 16.99 10.2544 16.3852 10.2861L20.0181 21.0925L21.0208 17.7418C21.4554 16.3513 21.7861 15.3526 21.7861 14.492Z" fill="white"/>
<path d="M15.1761 15.8787L12.16 24.6431C13.0821 24.9147 14.0385 25.0527 14.9998 25.0527C16.1368 25.0531 17.2655 24.8604 18.338 24.4828C18.3101 24.4389 18.2862 24.3925 18.2665 24.3443L15.1761 15.8787ZM23.8206 10.1763C23.8663 10.519 23.8889 10.8643 23.8883 11.2099C23.8883 12.23 23.6978 13.3768 23.1239 14.8107L20.0533 23.6888C23.0419 21.9459 25.0521 18.7082 25.0521 14.9995C25.0522 13.2517 24.6059 11.6081 23.8206 10.1763Z" fill="white"/>
<path d="M14.9998 3.28125C8.53828 3.28125 3.28125 8.53793 3.28125 14.9993C3.28125 21.4615 8.53828 26.7179 14.9998 26.7179C21.4609 26.7179 26.7188 21.4615 26.7188 14.9993C26.7185 8.53793 21.4609 3.28125 14.9998 3.28125ZM14.9998 26.1809C8.83453 26.1809 3.81855 21.1648 3.81855 14.9993C3.81855 8.83418 8.83441 3.81855 14.9998 3.81855C21.1646 3.81855 26.1803 8.83418 26.1803 14.9993C26.1803 21.1648 21.1646 26.1809 14.9998 26.1809Z" fill="white"/>
</g>
<defs>
<clipPath id="clip0_3_89">
<rect width="30" height="30" fill="white"/>
</clipPath>
</defs>
</svg>
